<svg width="660" height="660" viewBox="0 0 660 660" fill="none" xmlns="http://www.w3.org/2000/svg">
<circle cx="330" cy="330" r="330" fill="#FBCE51" opacity="0.8" />
<g style="mix-blend-mode:overlay">
<path d="M540.94 566.52L540.349 565.831L541.53 564.454L535.332 557.469L535.725 560.223L536.02 568.685L536.315 569.078L537.693 568.193L538.283 568.881L534.446 572.325L533.856 571.636L534.84 570.456L527.166 561.699L525.886 562.585L525.296 561.896L529.232 558.452L529.822 559.141L528.74 560.322L535.036 567.406L534.643 564.848L534.348 556.19L533.856 555.698L532.38 556.682L531.79 555.993L535.725 552.549L536.315 553.238L535.233 554.419L542.907 563.175L544.186 562.388L544.777 563.077L540.94 566.52Z" fill="#313131"/>
<path d="M531.298 574.489C530.904 574.981 530.609 575.276 530.314 575.571C530.019 575.867 529.724 576.162 529.429 576.359C528.248 577.342 527.166 577.933 526.182 578.031C525.198 578.129 524.411 577.834 523.722 576.949C523.132 576.162 522.837 575.375 522.935 574.489C523.033 573.604 523.427 572.817 524.017 572.128C523.132 572.817 522.246 573.112 521.361 573.112C520.475 573.013 519.787 572.62 519.196 571.931C518.311 570.849 518.016 569.865 518.213 568.783C518.409 567.701 519.196 566.618 520.574 565.438C521.164 564.946 521.754 564.552 522.246 564.355C522.738 564.06 523.23 563.863 523.525 563.765C523.821 563.667 524.017 563.568 524.116 563.568L525.887 566.323L525.198 566.913L523.23 565.339C522.542 565.438 521.853 565.831 520.967 566.52C520.279 567.012 519.983 567.602 519.983 568.291C519.983 568.98 520.279 569.668 520.869 570.455C521.361 571.046 521.951 571.439 522.64 571.538C523.329 571.636 524.116 571.341 525.001 570.652L525.985 569.865L526.674 570.652L525.788 571.341C525.395 571.636 525.1 572.03 524.804 572.521C524.608 573.013 524.509 573.505 524.509 573.997C524.608 574.489 524.804 575.079 525.198 575.571C525.69 576.26 526.28 576.555 526.87 576.555C527.461 576.555 528.051 576.26 528.74 575.768C529.133 575.375 529.527 575.08 529.724 574.686C529.92 574.292 530.019 573.997 530.019 573.8L529.232 572.226L530.117 571.439L532.085 573.604C531.987 573.702 531.691 573.997 531.298 574.489Z" fill="#313131"/>
<path d="M518.016 583.738L519.393 583.049L519.983 583.836L517.917 585.312C517.622 585.607 517.13 585.902 516.638 586.296C516.146 586.689 515.851 586.984 515.654 587.181C514.277 588.165 513.096 588.657 512.211 588.657C511.325 588.657 510.538 588.263 509.948 587.378C509.456 586.689 509.161 585.902 509.259 585.115C509.259 584.328 509.653 583.541 510.243 582.95C509.259 583.639 508.374 584.033 507.488 583.934C506.603 583.836 505.816 583.442 505.225 582.557C504.438 581.573 504.242 580.491 504.537 579.31C504.832 578.13 505.717 576.949 507.39 575.768C507.784 575.473 508.079 575.276 508.472 575.08C509.259 574.588 509.751 574.194 509.948 574.096L511.916 572.62L512.408 573.407L511.227 574.489L518.016 583.738ZM507.882 576.457C506.898 577.244 506.308 577.933 506.111 578.72C505.914 579.507 506.209 580.196 506.701 580.983C507.292 581.77 507.882 582.163 508.571 582.262C509.259 582.36 510.046 582.065 510.932 581.376C511.916 580.589 512.605 580.196 512.9 579.9L509.653 575.375C509.259 575.473 508.767 575.867 507.882 576.457ZM512.604 581.475L511.817 582.065C511.129 582.557 510.735 583.147 510.637 583.836C510.538 584.525 510.735 585.213 511.325 585.902C511.817 586.591 512.408 586.984 512.998 587.083C513.588 587.181 514.375 586.886 515.261 586.197C515.654 585.902 515.95 585.607 516.343 585.312L516.638 585.017L513.588 580.786C513.392 580.983 513.096 581.179 512.604 581.475Z" fill="#313131"/>
<path d="M505.422 594.068L503.75 595.249L492.829 586.985L491.747 587.477L491.255 586.69L495.387 583.935L495.879 584.722L494.698 585.706L496.961 587.575L501.487 584.525L500.7 581.77L499.224 582.459L498.732 581.672L502.471 579.212L502.963 579.999L502.077 580.786L505.422 594.068ZM502.864 592.199L504.143 593.281L503.553 591.609L501.782 585.607L497.847 588.264L502.864 592.199Z" fill="#313131"/>
<path d="M488.893 588.854C490.074 588.854 491.058 589.149 492.042 589.838C493.026 590.526 493.911 591.412 494.6 592.691C495.288 593.871 495.682 595.052 495.78 596.331C495.879 597.61 495.584 598.692 494.993 599.676C494.403 600.66 493.616 601.546 492.534 602.234C491.747 602.726 490.664 603.218 489.385 603.612L488.795 603.808L487.221 600.857L488.303 600.168L489.976 601.939C490.172 601.939 490.566 601.939 490.959 601.841C491.353 601.742 491.845 601.447 492.435 601.152C493.124 600.758 493.616 600.168 493.911 599.48C494.206 598.791 494.305 597.905 494.108 597.02C493.911 596.134 493.517 595.052 492.927 594.068C492.337 593.084 491.648 592.199 490.861 591.609C490.074 591.018 489.287 590.526 488.5 590.428C487.713 590.33 486.827 590.428 486.04 590.92C485.45 591.215 485.056 591.609 484.86 591.805C484.663 592.002 484.466 592.396 484.368 592.691L484.663 594.659L483.58 595.15L482.597 592.691C482.793 592.592 483.089 592.297 483.482 591.904C483.777 591.51 484.072 591.215 484.466 590.92C484.761 590.625 485.253 590.33 485.745 590.034C486.63 589.247 487.713 588.854 488.893 588.854Z" fill="#313131"/>
<path d="M479.055 606.563C478.956 607.646 478.661 608.728 478.169 609.515C477.579 610.4 476.89 611.089 476.005 611.483C474.923 612.073 473.84 612.27 472.856 612.171C471.873 612.073 470.889 611.679 470.003 610.991C469.118 610.302 468.331 609.417 467.74 608.138C467.052 606.76 466.658 605.481 466.56 604.3C466.461 603.021 466.757 601.939 467.248 600.955C467.74 599.972 468.527 599.283 469.511 598.692C470.594 598.102 471.676 597.807 472.758 597.905C473.84 598.004 474.726 598.397 475.611 598.988C476.497 599.676 477.284 600.562 477.874 601.841L480.531 600.463L477.973 595.643L476.497 596.233L476.103 595.446L480.629 592.986L481.023 593.773L479.744 594.659L485.253 604.891L486.631 604.399L487.024 605.186L482.597 607.547L482.203 606.76L483.482 605.875L481.121 601.447L478.464 602.923C478.858 604.301 479.055 605.481 479.055 606.563ZM477.284 607.941C477.382 606.662 476.989 605.186 476.005 603.317C475.119 601.742 474.136 600.562 473.053 599.972C471.971 599.381 470.889 599.283 469.708 599.873C468.626 600.463 468.134 601.349 468.036 602.53C467.937 603.71 468.429 605.284 469.413 607.154C470.298 608.728 471.184 609.908 472.266 610.499C473.348 611.187 474.431 611.188 475.414 610.597C476.595 610.105 477.185 609.22 477.284 607.941Z" fill="#313131"/>
<path d="M458.295 611.286C457.607 610.892 456.623 610.4 455.54 609.711C454.753 609.22 454.261 608.826 453.868 608.629C453.474 608.433 453.179 608.334 452.982 608.334L452.294 608.432L451.9 607.645L453.966 606.662C454.261 606.563 454.655 606.662 455.147 606.957C455.639 607.252 456.426 607.744 457.311 608.432C458.394 609.22 459.181 609.712 459.869 610.105C460.46 610.499 460.952 610.597 461.345 610.4L462.427 609.908L460.165 605.087L458.59 605.579L458.197 604.792L462.821 602.628L463.215 603.513L461.936 604.3L466.855 614.828L468.331 614.434L468.724 615.32L464.198 617.386L463.805 616.303L465.084 615.418L462.821 610.499L461.345 611.187L460.165 617.681L461.64 617.189L462.034 618.074L457.902 620.042L457.508 619.157L458.787 618.369L460.165 611.679C459.673 611.778 458.984 611.581 458.295 611.286Z" fill="#313131"/>
<path d="M449.145 609.416C450.228 609.613 451.113 610.105 451.9 610.99C452.687 611.777 453.376 612.86 453.966 614.139C454.557 615.418 454.753 616.697 454.655 617.976C454.557 619.156 454.163 620.239 453.573 621.124C452.884 622.01 452.097 622.698 450.916 623.19C449.145 623.977 447.473 623.977 446.096 623.19C444.718 622.403 443.537 621.124 442.75 619.058C442.16 617.681 441.963 616.402 442.062 615.221C442.16 613.942 442.554 612.958 443.144 611.974C443.833 611.089 444.718 610.4 445.8 609.908C446.981 609.416 448.063 609.219 449.145 609.416ZM452.687 619.648C452.884 618.369 452.687 616.894 451.9 614.926C451.212 613.155 450.326 611.974 449.244 611.187C448.162 610.4 447.079 610.302 445.997 610.794C444.915 611.286 444.226 612.073 444.029 613.352C443.833 614.631 444.029 616.205 444.816 618.074C445.505 619.845 446.391 621.026 447.473 621.714C448.457 622.403 449.539 622.6 450.72 622.108C451.802 621.813 452.491 620.927 452.687 619.648Z" fill="#313131"/>
<path d="M441.668 625.453L443.144 625.158L443.439 626.044L441.078 626.929C440.684 627.027 440.192 627.323 439.602 627.519C439.012 627.815 438.618 627.913 438.421 628.011C436.847 628.602 435.568 628.798 434.683 628.503C433.797 628.208 433.207 627.618 432.813 626.634C432.518 625.847 432.518 624.961 432.715 624.273C432.912 623.584 433.502 622.895 434.289 622.403C433.207 622.797 432.223 622.895 431.338 622.6C430.452 622.305 429.862 621.616 429.567 620.731C429.173 619.55 429.173 618.468 429.763 617.386C430.354 616.303 431.534 615.418 433.502 614.729C433.896 614.532 434.289 614.434 434.781 614.336C435.667 614.041 436.257 613.844 436.454 613.844L438.815 612.958L439.11 613.844L437.733 614.532L441.668 625.453ZM433.896 615.713C432.715 616.107 431.928 616.697 431.633 617.386C431.239 618.074 431.239 618.861 431.633 619.747C431.928 620.632 432.42 621.223 433.01 621.419C433.6 621.616 434.486 621.616 435.47 621.223C436.65 620.829 437.438 620.534 437.733 620.337L435.863 615.123C435.47 615.123 434.879 615.32 433.896 615.713ZM437.142 621.813L436.159 622.207C435.371 622.502 434.781 622.994 434.584 623.584C434.388 624.174 434.388 624.961 434.683 625.748C434.978 626.536 435.371 627.126 435.962 627.323C436.552 627.519 437.339 627.519 438.323 627.126C438.716 626.929 439.208 626.831 439.602 626.536L439.996 626.339L438.225 621.419C437.929 621.518 437.634 621.616 437.142 621.813Z" fill="#313131"/>
<path d="M414.022 635.686L413.726 634.8L415.202 634.111L411.857 622.994L410.086 623.289L409.791 622.403L414.809 620.928L415.104 621.813L413.628 622.403L416.973 633.619L422.68 631.947L419.334 620.731L417.662 621.026L417.367 620.141L422.384 618.665L422.68 619.55L421.302 620.141L424.647 631.258L426.221 631.061L426.517 631.947L414.022 635.686Z" fill="#313131"/>
<path d="M406.347 624.076C407.331 624.47 408.217 625.06 408.906 626.044C409.594 626.929 410.086 628.11 410.48 629.487C410.775 630.865 410.873 632.144 410.578 633.324C410.283 634.505 409.791 635.489 409.004 636.276C408.217 637.063 407.233 637.653 406.151 637.949C404.281 638.44 402.707 638.145 401.428 637.26C400.149 636.276 399.264 634.8 398.673 632.636C398.28 631.258 398.28 629.881 398.575 628.7C398.87 627.52 399.362 626.437 400.149 625.65C400.936 624.863 401.92 624.273 403.101 623.978C404.281 623.683 405.364 623.683 406.347 624.076ZM408.414 634.702C408.807 633.521 408.807 631.947 408.315 629.979C407.823 628.208 407.135 626.831 406.249 625.945C405.364 625.06 404.281 624.765 403.101 625.06C401.92 625.355 401.133 626.142 400.739 627.323C400.346 628.503 400.346 630.176 400.838 632.144C401.33 634.013 401.92 635.292 402.904 636.178C403.789 637.063 404.872 637.358 406.052 637.063C407.135 636.571 407.922 635.882 408.414 634.702Z" fill="#313131"/>
<path d="M392.377 631.848C392.278 630.078 392.377 628.799 392.77 627.815C392.967 627.323 393.164 626.929 393.459 626.634C393.754 626.339 394.148 626.142 394.541 626.044C395.131 625.945 395.525 625.847 395.82 625.847L396.214 627.323C395.919 627.323 395.427 627.421 394.836 627.519C394.64 627.519 394.443 627.618 394.246 627.815C394.049 628.011 393.951 628.208 393.852 628.405C393.164 630.078 393.361 633.127 394.246 637.555L394.541 639.031L396.706 638.834L396.902 639.719L386.277 641.884L386.08 640.998L387.753 640.408L385.49 628.995L383.62 629.192L383.424 628.307L389.032 627.224L389.228 628.11L387.359 628.7L389.622 640.113L393.361 639.326L393.065 637.653C392.77 635.489 392.475 633.521 392.377 631.848Z" fill="#313131"/>
<path d="M382.636 641.392H384.211L384.309 642.278L374.864 643.753L374.175 640.9L375.257 640.703L376.045 642.376L380.669 641.786L379.882 636.571L376.832 637.063V638.637L375.848 638.834L375.159 634.603L376.143 634.407L376.635 635.981L379.685 635.587L378.799 630.078L373.585 631.061L372.995 633.521L371.814 633.324V629.979L382.046 628.405L382.145 629.291L380.669 629.684L382.636 641.392Z" fill="#313131"/>
<path d="M367.288 643.753L370.437 643.261L370.633 639.326L371.814 639.228L372.109 644.245L360.5 645.524L359.712 640.605L360.893 640.507L361.975 644.344L365.222 644.048L363.845 632.341L361.188 632.439L361.09 631.553L368.174 630.766L368.272 631.652L365.911 632.144L367.288 643.753Z" fill="#313131"/>
<path d="M352.038 638.342L352.924 638.244C353.219 638.047 353.514 637.555 353.711 636.965C353.908 636.374 354.301 635.587 354.596 634.702C354.892 633.816 355.187 633.128 355.384 632.636C355.58 632.144 355.777 631.947 355.974 631.947L358.532 631.75L358.63 632.636L357.942 632.931C357.745 633.029 357.548 633.128 357.351 633.521C357.154 633.816 356.859 634.407 356.564 635.095C356.171 635.981 355.875 636.67 355.58 637.161C355.285 637.752 354.99 638.047 354.596 638.342C355.482 638.539 356.171 638.932 356.663 639.523C357.154 640.113 357.45 640.9 357.548 641.884C357.646 643.36 357.253 644.442 356.466 645.032C355.58 645.623 354.4 646.016 352.727 646.115C352.334 646.115 351.94 646.115 351.35 646.115C350.759 646.115 350.267 646.115 349.972 646.115L347.316 646.311L347.217 645.426L348.792 645.131L348.005 633.521L346.234 633.423L346.135 632.537L351.645 632.144L351.743 633.029L349.972 633.324L350.366 638.244L352.038 638.342ZM351.251 645.229C351.842 645.229 352.334 645.229 352.727 645.229C353.711 645.131 354.4 644.934 354.892 644.442C355.384 643.95 355.58 643.261 355.482 642.179C355.384 641.195 355.088 640.408 354.498 639.916C353.908 639.424 353.219 639.228 352.235 639.228C351.251 639.326 350.563 639.326 350.267 639.424L350.661 645.131L351.251 645.229Z" fill="#313131"/>
<path d="M340.429 645.721L343.676 645.524L344.168 641.589H345.447L345.25 646.606L333.64 646.901L333.247 641.884H334.427L335.116 645.819H338.363L337.969 634.013L335.313 633.915V633.029L342.495 632.832V633.718L340.035 634.013L340.429 645.721Z" fill="#313131"/>
<path d="M324.786 633.718C325.769 634.308 326.458 635.194 326.95 636.276C327.442 637.358 327.639 638.637 327.639 640.113C327.639 641.49 327.245 642.769 326.655 643.753C326.064 644.835 325.179 645.622 324.195 646.213C323.113 646.803 322.031 647 320.752 647C319.768 647 318.686 646.803 317.308 646.508L316.718 646.41L317.013 643.064H318.292L318.686 645.426C318.882 645.622 319.178 645.721 319.571 645.819C319.965 645.918 320.555 646.016 321.145 646.016C321.932 646.016 322.621 645.819 323.31 645.426C323.9 645.032 324.49 644.343 324.786 643.458C325.179 642.572 325.376 641.49 325.376 640.31C325.376 639.129 325.277 638.047 324.982 637.063C324.687 636.079 324.195 635.292 323.605 634.702C323.015 634.111 322.227 633.816 321.244 633.816C320.555 633.816 320.063 633.816 319.669 633.915C319.276 634.013 318.981 634.21 318.784 634.406L317.997 636.177L316.816 635.981L317.308 633.324C317.603 633.324 317.997 633.226 318.489 633.127C318.981 633.029 319.374 632.931 319.768 632.832C320.161 632.734 320.752 632.734 321.342 632.734C322.621 632.734 323.802 633.029 324.786 633.718Z" fill="#313131"/>
<path d="M309.044 646.213L309.142 645.328L311.011 645.229L311.7 635.882L310.028 638.047L304.223 644.245V644.737L305.895 645.032L305.797 645.918L300.681 645.524L300.779 644.639L302.255 644.54L303.042 632.931L301.468 632.636L301.566 631.75L306.781 632.144L306.682 633.029L305.01 633.128L304.321 642.573L305.895 640.507L311.897 634.21V633.521L310.126 633.226L310.224 632.341L315.439 632.734L315.34 633.62L313.766 633.718L312.979 645.328L314.455 645.623L314.356 646.508L309.044 646.213Z" fill="#313131"/>
<path d="M288.776 644.343L289.17 639.424L290.449 639.522L290.547 643.36L294.581 643.95L295.958 632.242L292.712 631.652L292.81 630.766L300.09 631.553L299.992 632.439H297.926L296.647 643.95L298.615 644.442L298.516 645.327L288.776 644.343Z" fill="#313131"/>
<path d="M285.726 642.769L287.104 643.261L287.005 644.147L281.988 643.36L282.086 642.474H283.66L284.447 637.555L277.954 636.571L277.167 641.49L278.642 641.982L278.544 642.868L273.625 642.081L273.723 641.195H275.199L276.97 629.684L275.494 629.291L275.592 628.405L280.512 629.192L280.413 630.078L278.839 629.979L277.954 635.39L284.447 636.374L285.333 630.963L283.758 630.57L283.857 629.684L288.973 630.471L288.875 631.357L287.399 631.258L285.726 642.769Z" fill="#313131"/>
<path d="M266.836 640.703L264.868 640.31L262.999 626.732L261.917 626.339L262.114 625.453L266.935 626.437L266.738 627.323L265.164 627.224L265.459 630.078L270.772 631.16L272.149 628.602L270.575 628.11L270.772 627.224L275.101 628.11L274.904 628.995L273.723 628.897L266.836 640.703ZM266.246 637.555L266.344 639.227L267.131 637.653L270.181 632.144L265.557 631.16L266.246 637.555Z" fill="#313131"/>
<path d="M256.21 629.291C256.899 627.716 257.588 626.536 258.276 625.749C258.67 625.355 258.965 625.158 259.359 624.962C259.752 624.863 260.146 624.863 260.638 624.962C261.228 625.06 261.622 625.257 261.917 625.355L261.72 626.831C261.425 626.733 261.031 626.634 260.343 626.437C260.146 626.339 259.949 626.339 259.752 626.437C259.555 626.536 259.359 626.634 259.162 626.831C257.883 628.012 256.702 630.865 255.522 635.292L255.128 636.768L257.194 637.555L256.997 638.441L246.569 635.784L246.765 634.899L248.536 635.095L251.389 623.781L249.618 623.191L249.815 622.305L255.423 623.683L255.227 624.568L253.357 624.273L250.504 635.489L254.144 636.374L254.538 634.702C254.931 632.734 255.522 630.865 256.21 629.291Z" fill="#313131"/>
<path d="M227.383 630.078L227.678 629.192L229.449 629.487L232.893 618.37L231.319 617.681L231.614 616.796L236.828 618.468L236.533 619.354L234.861 619.059L231.417 630.176L232.991 630.865L232.696 631.75L227.383 630.078ZM240.173 628.307C238.698 627.815 237.714 627.126 237.123 626.241C236.533 625.355 236.435 624.273 236.828 622.994C237.222 621.617 238.009 620.731 239.091 620.239C240.173 619.747 241.452 619.747 242.928 620.141C243.125 620.239 243.322 620.239 243.519 620.338C243.715 620.436 243.912 620.534 244.109 620.534C244.798 620.829 245.388 621.026 245.88 621.223L248.339 622.01L248.044 622.896L246.47 622.6L243.027 633.718L244.404 634.407L244.109 635.292L238.993 633.718L239.288 632.833L241.157 633.128L242.436 628.996L240.173 628.307ZM243.912 621.617C243.715 621.518 243.42 621.42 242.928 621.321C241.944 621.026 241.059 621.026 240.37 621.42C239.682 621.813 239.19 622.502 238.796 623.584C238.501 624.568 238.501 625.355 238.894 626.044C239.288 626.733 239.977 627.225 240.961 627.52L242.83 628.11L244.699 622.109C244.404 621.813 244.207 621.715 243.912 621.617Z" fill="#313131"/>
<path d="M219.611 625.945L220.89 626.732L220.595 627.618L215.872 625.749L216.167 624.863L217.741 625.257L219.611 620.534L213.511 618.173L211.641 622.895L212.92 623.683L212.625 624.568L208.001 622.699L208.296 621.813L209.772 622.108L214.003 611.286L212.724 610.597L213.019 609.712L217.741 611.581L217.446 612.466L215.97 612.073L214.003 617.091L220.103 619.452L222.07 614.434L220.595 613.647L220.89 612.762L225.711 614.631L225.416 615.516L223.94 615.123L219.611 625.945Z" fill="#313131"/>
<path d="M201.606 619.944L199.737 619.058L200.819 605.383L199.835 604.694L200.229 603.907L204.754 605.874L204.361 606.76L202.885 606.268L202.59 609.121L207.608 611.384L209.575 609.22L208.198 608.432L208.592 607.645L212.625 609.416L212.232 610.203L211.051 609.908L201.606 619.944ZM201.803 616.795L201.606 618.468L202.688 617.09L206.821 612.368L202.492 610.4L201.803 616.795Z" fill="#313131"/>
<path d="M188.029 612.171L189.701 613.352L189.308 614.139L184.88 611.778L186.455 603.12L187.045 600.758L185.471 602.628L179.272 608.826L174.943 606.563L175.337 605.776L177.305 606.563L181.437 595.642L180.06 594.658L180.453 593.871L185.176 596.429L184.782 597.216L183.208 596.626L180.06 604.399L178.682 607.744L180.65 605.776L188.029 598.594L189.111 599.184L187.635 608.531L186.947 612.171L188.914 609.121L193.538 602.037L191.964 601.054L192.358 600.266L196.687 602.529L196.293 603.316L194.817 602.726L188.029 612.171Z" fill="#313131"/>
<path d="M168.647 602.923L166.876 601.841L169.631 588.46L168.745 587.673L169.237 586.886L173.468 589.444L172.976 590.231L171.5 589.641L170.811 592.494L175.534 595.249L177.698 593.281L176.419 592.297L176.911 591.51L180.748 593.773L180.256 594.56L179.174 594.167L168.647 602.923ZM169.237 599.775L168.843 601.447L170.122 600.267L174.845 596.036L170.713 593.577L169.237 599.775Z" fill="#313131"/>
<path d="M160.481 596.429L161.563 597.413L161.071 598.2L159.005 596.823C158.611 596.626 158.218 596.331 157.824 596.134C157.234 595.839 156.644 595.445 156.152 595.15C154.676 594.166 153.79 593.183 153.495 592.199C153.2 591.215 153.495 590.231 154.184 589.05C154.774 588.263 155.365 587.575 156.152 587.279C156.939 586.886 157.824 586.787 158.71 586.886C159.595 586.984 160.481 587.378 161.366 587.968C161.661 588.165 161.956 588.362 162.252 588.558C162.547 588.755 162.743 588.952 162.842 588.952L165.105 585.509L163.039 583.934L163.531 583.147L168.647 586.492L168.155 587.279L166.777 586.591L160.481 596.429ZM160.874 588.854C160.087 588.362 159.202 588.165 158.415 588.263C157.627 588.362 156.742 589.05 156.053 590.231C155.463 591.117 155.266 591.904 155.463 592.592C155.66 593.281 156.25 593.97 157.135 594.56C157.431 594.757 157.824 594.954 158.218 595.15C158.414 595.249 158.611 595.347 158.71 595.445L162.35 589.936C162.055 589.739 161.563 589.346 160.874 588.854Z" fill="#313131"/>
<path d="M156.152 579.114C156.644 580.196 156.742 581.278 156.447 582.459C156.25 583.639 155.66 584.82 154.873 586.001C154.086 587.181 153.102 587.968 152.019 588.46C150.937 588.952 149.757 589.247 148.576 589.051C147.395 588.952 146.313 588.559 145.231 587.772C144.444 587.181 143.558 586.394 142.673 585.41L142.279 584.918L144.345 582.262L145.329 582.951L144.345 585.115C144.444 585.312 144.542 585.607 144.837 586.001C145.132 586.296 145.526 586.689 146.018 587.083C146.707 587.575 147.395 587.772 148.182 587.772C148.969 587.772 149.757 587.476 150.544 586.985C151.331 586.493 152.118 585.706 152.807 584.722C153.495 583.738 153.987 582.852 154.282 581.868C154.577 580.885 154.676 579.999 154.479 579.212C154.282 578.425 153.79 577.736 153.102 577.146C152.61 576.752 152.118 576.556 151.724 576.359C151.331 576.162 151.036 576.162 150.74 576.26L149.068 577.343L148.182 576.556L150.052 574.686C150.249 574.785 150.642 574.981 151.134 575.178C151.626 575.375 152.019 575.473 152.413 575.67C152.807 575.867 153.2 576.162 153.79 576.457C154.971 577.146 155.758 578.031 156.152 579.114Z" fill="#313131"/>
<path d="M121.913 569.078L122.504 568.389L123.979 569.472L130.178 562.388L127.521 563.077L119.159 564.454L118.863 564.848L119.946 566.127L119.355 566.815L115.518 563.372L116.109 562.683L117.388 563.47L125.062 554.714L123.979 553.533L124.57 552.844L128.505 556.288L127.915 556.977L126.538 555.993L120.241 563.175L122.7 562.486L131.26 561.109L131.752 560.617L130.571 559.338L131.162 558.649L135.097 562.093L134.507 562.781L133.228 561.896L125.554 570.652L126.538 571.833L125.947 572.522L121.913 569.078Z" fill="#313131"/>
<path d="M112.763 560.519C112.271 560.223 111.878 559.928 111.484 559.731C111.091 559.535 110.894 559.24 110.599 559.043C109.517 557.961 108.828 556.977 108.533 555.993C108.238 555.009 108.533 554.222 109.32 553.435C110.009 552.746 110.796 552.353 111.681 552.353C112.567 552.353 113.354 552.648 114.141 553.14C113.354 552.353 112.862 551.467 112.862 550.582C112.862 549.696 113.157 548.909 113.747 548.22C114.633 547.236 115.715 546.745 116.797 546.843C117.879 546.941 119.06 547.532 120.437 548.811C120.929 549.303 121.421 549.795 121.716 550.286C122.012 550.778 122.307 551.172 122.504 551.467C122.7 551.762 122.799 551.959 122.799 552.057L120.339 554.123L119.65 553.435L120.929 551.369C120.733 550.68 120.241 549.991 119.454 549.303C118.863 548.712 118.175 548.417 117.584 548.515C116.994 548.614 116.207 549.007 115.518 549.696C115.026 550.286 114.731 550.877 114.633 551.565C114.633 552.254 115.026 553.041 115.813 553.73L116.797 554.615L116.108 555.402L115.321 554.615C114.928 554.222 114.534 554.025 114.042 553.828C113.55 553.632 113.059 553.632 112.567 553.73C112.075 553.828 111.583 554.123 111.091 554.615C110.5 555.206 110.304 555.796 110.304 556.386C110.402 556.977 110.697 557.567 111.288 558.157C111.681 558.551 112.075 558.846 112.468 558.944C112.862 559.141 113.157 559.141 113.354 559.043L114.829 558.059L115.715 558.846L113.846 561.01C113.649 561.01 113.354 560.814 112.763 560.519Z" fill="#313131"/>
<path d="M101.941 548.515L102.826 549.794L102.138 550.385L100.367 548.515C100.072 548.22 99.678 547.827 99.1861 547.433C98.6942 547.04 98.399 546.744 98.2022 546.548C97.0216 545.269 96.4313 544.186 96.2345 543.301C96.1361 542.415 96.4313 541.628 97.2184 540.841C97.9071 540.251 98.5958 539.857 99.3829 539.857C100.17 539.759 100.957 540.054 101.646 540.546C100.859 539.661 100.367 538.775 100.367 537.89C100.367 537.004 100.662 536.217 101.449 535.528C102.334 534.643 103.417 534.249 104.597 534.446C105.778 534.545 107.057 535.332 108.533 536.906C108.828 537.201 109.123 537.594 109.418 537.89C110.009 538.578 110.402 539.07 110.599 539.169L112.271 540.94L111.583 541.53L110.402 540.546L101.941 548.515ZM103.515 542.809L102.826 542.022C102.236 541.432 101.646 541.038 100.957 541.038C100.268 541.038 99.678 541.333 98.9893 541.924C98.399 542.514 98.0055 543.104 98.0055 543.694C98.0055 544.285 98.399 544.973 99.0877 545.761C99.3829 546.056 99.7764 546.449 100.072 546.744L100.367 547.04L104.204 543.498C104.204 543.498 103.909 543.203 103.515 542.809ZM107.942 537.496C107.057 536.611 106.27 536.119 105.483 536.02C104.696 535.922 104.007 536.217 103.318 536.906C102.63 537.594 102.236 538.185 102.334 538.874C102.433 539.562 102.728 540.251 103.515 541.038C104.401 541.923 104.892 542.514 105.188 542.809L109.221 538.972C109.025 538.775 108.631 538.283 107.942 537.496Z" fill="#313131"/>
<path d="M90.1346 537.299L88.7572 535.725L95.5459 523.919L94.9555 522.935L95.6442 522.345L98.891 526.083L98.2023 526.674L97.0217 525.591L95.4475 528.051L98.9894 532.183L101.646 531.003L100.76 529.625L101.449 529.035L104.302 532.38L103.614 532.97L102.728 532.183L90.1346 537.299ZM91.6104 534.446L90.6266 535.922L92.2007 535.135L98.0055 532.675L94.8572 529.035L91.6104 534.446Z" fill="#313131"/>
<path d="M93.1846 520.181C93.283 521.263 93.0862 522.443 92.5943 523.427C92.1024 524.411 91.2169 525.493 90.1346 526.379C89.0524 527.264 87.8718 527.756 86.6911 527.953C85.5105 528.15 84.3299 528.051 83.2476 527.658C82.1654 527.264 81.1815 526.477 80.3944 525.493C79.8041 524.706 79.2138 523.722 78.6235 522.542L78.3283 521.951L81.0831 519.984L81.8702 520.968L80.296 522.837C80.296 523.034 80.3944 523.427 80.5912 523.821C80.7879 524.214 81.0831 524.706 81.4766 525.198C81.9686 525.789 82.5589 526.28 83.346 526.477C84.1331 526.674 84.9202 526.674 85.8056 526.379C86.6911 526.084 87.675 525.592 88.6588 524.805C89.5443 524.116 90.3314 523.329 90.9217 522.443C91.512 521.558 91.8072 520.771 91.8072 519.885C91.9056 519 91.6104 518.213 91.0201 517.524C90.6266 517.032 90.233 516.639 89.9379 516.442C89.6427 516.245 89.3475 516.048 88.954 516.048L86.9863 516.54L86.3959 515.556L88.7572 514.277C88.954 514.474 89.2492 514.769 89.6427 515.064C90.0363 515.36 90.4298 515.556 90.7249 515.852C91.0201 516.147 91.4136 516.54 91.8072 517.032C92.5943 518.016 93.0862 519.098 93.1846 520.181Z" fill="#313131"/>
<path d="M74.3929 512.604C73.3107 512.703 72.2284 512.506 71.3429 512.112C70.4574 511.719 69.6703 511.03 69.08 510.145C68.3913 509.161 67.9978 508.177 67.9978 507.095C67.9978 506.013 68.1946 505.029 68.7849 504.143C69.3752 503.159 70.1623 502.372 71.2445 501.585C72.5236 500.7 73.7042 500.208 74.8848 499.913C76.0655 499.716 77.2461 499.814 78.2299 500.208C79.2138 500.601 80.0993 501.29 80.788 502.175C81.4767 503.159 81.8702 504.242 81.9686 505.324C82.067 506.406 81.7718 507.39 81.1815 508.374C80.5912 509.358 79.8041 510.243 78.7219 511.03L80.4928 513.49L84.9202 510.341L84.1331 508.866L84.9202 508.374L87.8718 512.604L87.0847 513.096L86.0024 511.916L76.5574 518.606L77.2461 519.983L76.459 520.475L73.5074 516.343L74.2945 515.851L75.3768 517.032L79.509 514.08L77.738 511.621C76.6558 512.211 75.4751 512.604 74.3929 512.604ZM72.8187 511.129C74.0977 511.129 75.5735 510.538 77.2461 509.259C78.7219 508.177 79.7057 507.095 80.1977 505.914C80.6896 504.733 80.5912 503.651 79.9025 502.667C79.2138 501.684 78.2299 501.29 77.0493 501.29C75.8687 501.29 74.3929 501.979 72.7203 503.159C71.2445 504.242 70.2607 505.324 69.7687 506.406C69.2768 507.587 69.3752 508.571 70.0639 509.554C70.6542 510.637 71.6381 511.129 72.8187 511.129Z" fill="#313131"/>
<path d="M67.2106 492.731C67.5057 491.944 67.8993 490.96 68.4896 489.779C68.8832 488.992 69.1783 488.402 69.3751 487.91C69.5719 487.516 69.5718 487.221 69.5718 487.024L69.3751 486.336L70.1622 485.844L71.4412 487.811C71.638 488.008 71.5396 488.5 71.3428 488.992C71.146 489.582 70.7525 490.369 70.1622 491.353C69.5718 492.534 69.0799 493.419 68.7848 494.108C68.4896 494.797 68.4896 495.289 68.6864 495.584L69.2767 496.568L73.8025 493.715L73.1137 492.14L73.9009 491.648L76.6556 495.978L75.8686 496.469L74.8847 495.289L65.0461 501.487L65.6364 502.865L64.8493 503.356L62.1929 499.126L62.98 498.634L63.9639 499.815L68.4896 496.961L67.6041 495.584L61.0123 495.289L61.701 496.765L60.9139 497.257L58.4542 493.321L59.2413 492.829L60.2252 493.911L67.0138 494.403C66.8171 494.108 66.9154 493.419 67.2106 492.731Z" fill="#313131"/>
<path d="M67.8011 483.384C67.7027 484.466 67.3091 485.45 66.6204 486.336C65.9317 487.221 64.9478 488.106 63.7672 488.795C62.4882 489.484 61.3076 489.877 60.127 489.976C58.9463 490.074 57.8641 489.779 56.8802 489.287C55.8963 488.795 55.1092 488.008 54.5189 486.926C53.5351 485.253 53.3383 483.679 53.9286 482.105C54.5189 480.629 55.6996 479.35 57.5689 478.268C58.8479 477.579 60.1269 477.186 61.3076 477.087C62.4882 476.989 63.6688 477.284 64.6527 477.776C65.6365 478.268 66.4237 479.055 67.014 480.137C67.6043 481.219 67.8994 482.302 67.8011 483.384ZM58.0608 488.205C59.3399 488.303 60.8157 487.811 62.5866 486.827C64.2592 485.942 65.3414 484.86 65.9317 483.777C66.522 482.695 66.522 481.515 65.9317 480.531C65.3414 479.448 64.3576 478.957 63.0785 478.858C61.7995 478.76 60.2253 479.252 58.4544 480.236C56.7818 481.121 55.6996 482.203 55.1093 483.286C54.5189 484.368 54.5189 485.45 55.1093 486.532C55.8963 487.516 56.8802 488.106 58.0608 488.205Z" fill="#313131"/>
<path d="M50.977 477.973L51.4689 479.448L50.6818 479.842L49.5012 477.579C49.3044 477.186 49.0092 476.694 48.7141 476.202C48.4189 475.71 48.1238 475.316 48.0254 475.021C47.2383 473.447 46.9431 472.266 47.0415 471.381C47.1399 470.495 47.7302 469.807 48.6157 469.315C49.4028 468.921 50.1899 468.823 50.977 468.921C51.764 469.118 52.4528 469.511 53.0431 470.2C52.4528 469.118 52.256 468.232 52.4527 467.347C52.6495 466.461 53.2398 465.773 54.1253 465.379C55.2076 464.789 56.3882 464.69 57.4704 465.182C58.5527 465.576 59.6349 466.757 60.5204 468.528C60.7172 468.921 60.914 469.315 61.0124 469.708C61.4059 470.594 61.701 471.086 61.7994 471.282L62.9801 473.447L62.193 473.84L61.3075 472.561L50.977 477.973ZM54.0269 472.955L53.535 472.069C53.1415 471.282 52.6495 470.79 51.9608 470.594C51.3705 470.397 50.5834 470.495 49.7963 470.987C49.0093 471.381 48.5173 471.873 48.4189 472.463C48.3205 473.053 48.4189 473.84 48.9108 474.824C49.1076 475.218 49.3044 475.611 49.5996 476.005L49.7963 476.3L54.4205 473.939C54.4205 473.742 54.2237 473.447 54.0269 472.955ZM59.635 469.019C59.0446 467.937 58.4543 467.249 57.6672 466.953C56.9785 466.658 56.1914 466.757 55.3059 467.249C54.4205 467.642 53.9285 468.232 53.8301 468.823C53.6334 469.413 53.8301 470.298 54.3221 471.282C54.9124 472.365 55.306 473.152 55.5027 473.447L60.422 470.889C60.422 470.594 60.1269 470.003 59.635 469.019Z" fill="#313131"/>
<path d="M37.3012 451.9L38.1866 451.507L39.0721 452.884L49.6978 448.162L49.2059 446.489L50.0914 446.095L52.2559 450.916L51.3704 451.31L50.5833 449.933L39.9576 454.655L42.4173 460.165L53.1413 455.442L52.6494 453.77L53.5349 453.376L55.601 458.197L54.7155 458.591L53.9284 457.311L43.3027 462.034L43.6963 463.608L42.8108 464.002L37.3012 451.9Z" fill="#313131"/>
<path d="M47.927 442.75C47.7302 443.734 47.1399 444.718 46.3528 445.505C45.5657 446.292 44.4835 446.981 43.1061 447.473C41.7286 447.965 40.4496 448.161 39.269 448.063C38.0884 447.965 37.0061 447.571 36.1206 446.882C35.2352 446.194 34.5465 445.308 34.1529 444.226C33.4642 442.455 33.4642 440.783 34.2513 439.405C35.0384 438.028 36.4158 436.945 38.4819 436.158C39.8593 435.666 41.1383 435.47 42.319 435.568C43.4996 435.666 44.5818 436.06 45.5657 436.749C46.4512 437.437 47.1399 438.323 47.5334 439.405C48.0254 440.684 48.1237 441.766 47.927 442.75ZM37.5964 446.095C38.8754 446.391 40.3513 446.095 42.319 445.407C44.0899 444.718 45.2705 443.931 46.0576 442.849C46.8447 441.865 47.0415 440.783 46.5496 439.602C46.156 438.52 45.2705 437.831 43.9915 437.536C42.7125 437.241 41.1383 437.536 39.269 438.224C37.4981 438.913 36.219 439.7 35.5303 440.783C34.7433 441.766 34.6448 442.849 35.1368 444.029C35.5303 445.21 36.4158 445.899 37.5964 446.095Z" fill="#313131"/>
<path d="M38.3835 429.96C40.0561 429.665 41.4335 429.567 42.4174 429.764C42.9093 429.862 43.3028 430.059 43.598 430.256C43.8931 430.551 44.0899 430.846 44.2867 431.239C44.4835 431.83 44.5818 432.223 44.5818 432.518L43.2045 433.109C43.1061 432.814 43.0077 432.42 42.8109 431.731C42.7125 431.535 42.6141 431.338 42.4174 431.239C42.2206 431.141 42.0238 431.043 41.7287 430.944C40.0561 430.551 37.0061 431.043 32.6771 432.518L31.2997 433.01L31.7917 435.077L30.9062 435.372L27.4627 425.14L28.3481 424.844L29.1353 426.419L40.1545 422.68L39.7609 420.909L40.6464 420.614L42.5157 426.025L41.6303 426.32L40.8432 424.549L29.8239 428.189L31.0046 431.83L32.5788 431.338C34.8416 430.748 36.711 430.256 38.3835 429.96Z" fill="#313131"/>
<path d="M27.6595 421.499L27.8562 423.073L26.9708 423.368L24.3143 414.218L27.0692 413.136L27.3643 414.12L25.7901 415.104L26.9708 419.63L31.9885 418.154L31.103 415.202L29.5288 415.399L29.2336 414.415L33.3659 413.235L33.661 414.218L32.1852 414.907L32.9723 417.957L38.2852 416.383L36.6126 411.365L34.0546 411.07V409.889L37.3013 409.496L40.1545 419.433L39.269 419.728L38.6787 418.252L27.6595 421.499Z" fill="#313131"/>
<path d="M23.4287 406.544L24.3142 409.594L28.2497 409.299L28.5448 410.48L23.6255 411.365L20.8707 400.051L25.6916 398.674L25.9868 399.854L22.3465 401.428L23.0352 404.577L34.448 401.724L33.9561 399.067L34.8415 398.87L36.5141 405.757L35.6286 405.954L34.8415 403.593L23.4287 406.544Z" fill="#313131"/>
<path d="M26.8723 390.704L27.0691 391.59C27.3643 391.885 27.7578 392.082 28.4465 392.278C29.0368 392.475 29.8239 392.672 30.8078 392.869C31.7917 393.065 32.4804 393.262 32.9723 393.361C33.4642 393.459 33.7594 393.656 33.7594 393.853L34.2513 396.312L33.3658 396.509L33.0707 395.82C32.9723 395.623 32.7755 395.525 32.4804 395.328C32.0868 395.23 31.5949 395.033 30.8078 394.738C29.9223 394.541 29.2336 394.246 28.6433 394.049C28.053 393.853 27.6594 393.557 27.3643 393.262C27.2659 394.148 26.9707 394.836 26.3804 395.525C25.7901 396.115 25.1014 396.509 24.1175 396.706C22.6418 397.001 21.5595 396.804 20.7724 396.017C19.9853 395.23 19.4934 394.049 19.1982 392.475C19.0999 392.082 19.0998 391.688 19.0015 391.098C18.9031 390.507 18.9031 390.015 18.8047 389.72L18.3128 387.064L19.1982 386.867L19.6902 388.343L31.103 386.08L30.9062 384.309L31.7917 384.112L32.8739 389.524L31.9884 389.72L31.4965 387.949L26.5772 388.933L26.8723 390.704ZM19.8869 390.803C19.8869 391.393 19.9853 391.885 20.0837 392.278C20.2805 393.262 20.5756 393.951 21.166 394.344C21.7563 394.738 22.445 394.836 23.5272 394.64C24.5111 394.443 25.1998 394.049 25.6917 393.459C26.1837 392.869 26.1837 392.082 26.0853 391.098C25.8885 390.114 25.7901 389.524 25.5933 389.13L19.9853 390.212L19.8869 390.803Z" fill="#313131"/>
<path d="M18.0176 380.177L18.6079 383.325H22.5434L22.7401 384.506L17.7224 384.998L15.9515 373.487L20.8708 372.503L21.0676 373.684L17.3289 374.864L17.7224 378.111L29.332 376.34L29.1352 373.684L30.0207 373.585L31.103 380.669L30.2175 380.767L29.6272 378.406L18.0176 380.177Z" fill="#313131"/>
<path d="M28.0531 363.058C27.5612 364.042 26.774 364.927 25.7902 365.517C24.8063 366.108 23.5273 366.501 22.1499 366.6C20.7725 366.698 19.4935 366.6 18.4112 366.108C17.329 365.616 16.3451 364.927 15.6564 363.943C14.9677 362.959 14.5742 361.877 14.4758 360.598C14.3774 359.614 14.3774 358.434 14.5742 357.155L14.6726 356.564L18.0177 356.367L18.1161 357.646L15.7548 358.335C15.6564 358.532 15.558 358.827 15.4596 359.319C15.3613 359.713 15.3613 360.303 15.4596 360.893C15.558 361.68 15.8532 362.369 16.3451 362.959C16.8371 363.55 17.5258 363.943 18.5096 364.238C19.3951 364.533 20.4774 364.533 21.7564 364.435C22.937 364.337 23.9209 364.042 24.9047 363.648C25.7902 363.254 26.5773 362.664 27.0692 361.975C27.5612 361.287 27.7579 360.5 27.6595 359.516C27.5612 358.827 27.4628 358.335 27.3644 358.04C27.266 357.745 27.0692 357.45 26.774 357.155L24.9047 356.564V355.384L27.5612 355.58C27.5612 355.875 27.7579 356.171 27.9547 356.663C28.1515 357.056 28.2499 357.548 28.4466 357.942C28.6434 358.335 28.6434 358.827 28.7418 359.516C28.7418 360.795 28.545 361.975 28.0531 363.058Z" fill="#313131"/>
<path d="M13.6887 348.988L14.5742 348.89L14.8694 350.661L24.216 350.169L21.8547 348.792L14.9677 343.774H14.4758L14.3774 345.446L13.4919 345.545L13.1968 340.429L14.0822 340.33L14.3774 341.806L25.987 341.216L26.0854 339.642H26.9708L27.266 344.856H26.3805L26.0854 343.184L16.5419 343.675L18.8048 344.954L25.7902 350.071H26.4789L26.5773 348.3L27.4628 348.201L27.7579 353.416L26.8724 353.514L26.5773 351.94L14.9677 352.53L14.8694 354.006L13.9839 354.104L13.6887 348.988Z" fill="#313131"/>
<path d="M13 328.721L17.9193 328.524V329.803L14.1806 330.393L14.0822 334.525L25.8886 334.329L26.0853 331.082H26.9708L27.0692 338.363H26.1837L25.9869 336.296L14.3774 336.493L14.1806 338.461H13.2951L13 328.721Z" fill="#313131"/>
<path d="M14.1806 325.474L13.8854 326.95H12.9999L13.1967 321.834H14.0822L14.279 323.408L19.2967 323.605L19.4934 317.013L14.4757 316.816L14.1806 318.292H13.2951L13.4919 313.274H14.3774L14.5741 314.75L26.1837 315.144L26.3805 313.668H27.2659L27.0692 318.686H26.1837L26.0853 317.111L20.6741 316.915L20.4773 323.507L25.8885 323.703L26.0853 322.129H26.9708L26.774 327.245H25.8885L25.7901 325.769L14.1806 325.474Z" fill="#313131"/>
<path d="M13.787 306.486L13.9838 304.42L27.1675 300.878L27.4627 299.697L28.3481 299.795L27.9546 304.715L27.0691 304.616L26.9707 303.042L24.1176 303.731L23.724 309.142L26.3804 310.224L26.6756 308.65L27.5611 308.749L27.2659 313.176L26.3804 313.078L26.282 311.897L13.787 306.486ZM16.9354 305.6L15.2628 305.895L16.9354 306.486L22.7402 308.847L23.1337 304.124L16.9354 305.6Z" fill="#313131"/>
<path d="M23.9209 294.482C25.5934 294.974 26.8725 295.466 27.6595 296.057C28.0531 296.352 28.3482 296.745 28.545 297.04C28.7418 297.434 28.7418 297.828 28.7418 298.221C28.6434 298.811 28.545 299.205 28.4466 299.5L26.9708 299.402C27.0692 299.107 27.0692 298.615 27.1676 298.024C27.1676 297.828 27.1676 297.532 27.0692 297.434C26.9708 297.237 26.7741 297.04 26.5773 296.844C25.1999 295.761 22.2483 294.876 17.7225 294.384L16.2468 294.187L15.7548 296.253L14.8694 296.155L16.1484 285.431L17.0338 285.529V287.3L28.545 288.678L28.9386 286.907L29.824 287.005L29.1353 292.711L28.2498 292.613V290.645L16.7387 289.268L16.2468 293.007L17.9193 293.203C20.2806 293.695 22.2483 293.99 23.9209 294.482Z" fill="#313131"/>
<path d="M22.7401 278.445C23.0352 276.97 23.5271 275.887 24.4126 275.199C25.2981 274.51 26.282 274.313 27.561 274.51C28.9384 274.805 30.0206 275.396 30.611 276.478C31.2013 277.462 31.398 278.741 31.1029 280.216C31.1029 280.413 31.0045 280.61 31.0045 280.807C30.9061 281.004 30.9061 281.2 30.8077 281.495C30.6109 282.184 30.5126 282.774 30.4142 283.365L30.0206 285.824L29.1352 285.628L29.2335 284.053L17.7224 281.987L17.2304 283.463L16.345 283.266L17.2304 278.052L18.1159 278.249L18.0175 280.118L22.2481 280.905L22.7401 278.445ZM19.3949 265.95L20.2804 266.147L20.182 267.918L31.5948 269.984L32.0867 268.312L32.9722 268.508L31.9884 273.92L31.1029 273.723L31.2012 271.952L19.7885 269.886L19.2966 271.558L18.4111 271.362L19.3949 265.95ZM29.9222 281.397C30.0206 281.2 30.0206 280.807 30.119 280.413C30.3158 279.429 30.119 278.544 29.6271 277.855C29.1352 277.166 28.348 276.773 27.2658 276.576C26.2819 276.379 25.3965 276.576 24.8061 276.97C24.2158 277.462 23.8223 278.15 23.6255 279.134L23.3304 281.004L29.5287 282.086C29.7255 281.889 29.8239 281.594 29.9222 281.397Z" fill="#313131"/>
<path d="M22.445 257.784L21.8546 259.162L20.9692 258.965L22.2482 254.046L23.1337 254.242L22.9369 255.817L27.8562 256.997L29.4304 250.602L24.5111 249.422L23.9208 250.799L23.0353 250.602L24.2159 245.781L25.1014 245.978L25.003 247.454L36.3174 250.307L36.9077 248.93L37.7932 249.126L36.6126 254.046L35.7271 253.849L35.9239 252.275L30.611 250.996L29.0368 257.391L34.3497 258.67L34.94 257.096L35.8255 257.292L34.5465 262.31L33.661 262.113L33.8578 260.638L22.445 257.784Z" fill="#313131"/>
<path d="M26.1836 239.189L26.7739 237.222L40.4496 236.631L40.9415 235.549L41.827 235.844L40.3512 240.567L39.4657 240.272L39.7609 238.697H36.8093L35.2351 243.912L37.5964 245.584L38.2851 244.109L39.1706 244.404L37.8916 248.634L37.0061 248.339L37.2028 247.159L26.1836 239.189ZM29.332 238.993H27.6594L29.1352 239.878L34.3497 243.42L35.7271 238.894L29.332 238.993Z" fill="#313131"/>
<path d="M32.1852 224.628L31.2997 226.498L30.4142 226.202L32.1852 221.578L40.9416 222.07L43.4012 222.365L41.3351 220.988L34.3497 215.577L36.1206 210.953L37.0061 211.248L36.5142 213.216L47.927 215.872L48.7141 214.396L49.5995 214.691L47.6318 219.807L46.7463 219.512L47.1399 217.84L38.9738 215.675L35.4319 214.79L37.6948 216.462L45.7625 222.857L45.3689 224.038L35.9239 223.743L32.1852 223.546L35.4319 225.12L43.0077 228.761L43.7948 227.088L44.6802 227.383L43.0077 231.909L42.1222 231.614L42.5157 230.04L32.1852 224.628Z" fill="#313131"/>
<path d="M38.8755 204.361L39.6625 202.492L53.3382 203.476L53.9285 202.492L54.814 202.885L52.8463 207.411L51.9608 207.017L52.4527 205.542L49.5995 205.247L47.435 210.264L49.5995 212.134L50.3866 210.756L51.2721 211.15L49.5011 215.183L48.6157 214.79L48.9108 213.609L38.8755 204.361ZM42.0238 204.459L40.3512 204.263L41.7286 205.345L46.4512 209.477L48.3205 205.148L42.0238 204.459Z" fill="#313131"/>
<path d="M44.2867 195.408L43.4013 196.588L42.5158 196.195L43.598 193.932C43.7948 193.538 43.9916 193.145 44.09 192.751C44.3851 192.161 44.5819 191.571 44.8771 190.98C45.6642 189.406 46.5496 188.324 47.4351 187.93C48.3206 187.537 49.4028 187.635 50.5834 188.226C51.4689 188.619 52.1576 189.209 52.6496 189.997C53.1415 190.784 53.3382 191.571 53.3382 192.456C53.3382 193.342 53.1415 194.326 52.6496 195.211C52.4528 195.506 52.3544 195.9 52.1576 196.195C51.9609 196.49 51.8625 196.687 51.8625 196.785L55.6011 198.556L56.8802 196.392L57.6673 196.785L55.0108 202.295L54.2237 201.901L54.7157 200.425L44.2867 195.408ZM51.8625 194.817C52.256 193.932 52.3544 193.047 52.0592 192.259C51.7641 191.472 51.0754 190.784 49.7964 190.095C48.8125 189.603 48.0254 189.505 47.3367 189.8C46.648 190.095 46.1561 190.685 45.5658 191.768C45.369 192.161 45.2706 192.555 45.0738 192.948C44.9754 193.243 44.8771 193.342 44.8771 193.44L50.8786 196.293C51.1738 196.097 51.4689 195.605 51.8625 194.817Z" fill="#313131"/>
<path d="M61.0123 188.914C60.0284 189.505 58.9462 189.701 57.7655 189.701C56.5849 189.603 55.4043 189.308 54.1253 188.619C52.9446 187.93 51.9608 187.143 51.2721 186.061C50.5834 185.077 50.2882 183.897 50.1898 182.716C50.1898 181.535 50.3866 180.355 51.0753 179.272C51.5672 178.387 52.1575 177.501 53.1414 176.419L53.5349 175.927L56.3881 177.698L55.7978 178.78L53.4365 178.092C53.2398 178.19 52.9446 178.387 52.6495 178.682C52.3543 178.977 52.0592 179.469 51.764 179.961C51.3705 180.65 51.272 181.437 51.3704 182.126C51.4688 182.913 51.8624 183.601 52.4527 184.388C53.043 185.077 53.9285 185.766 55.0107 186.356C55.9946 186.946 57.0768 187.242 58.0607 187.438C59.0446 187.635 59.93 187.537 60.7171 187.242C61.5042 186.946 62.0945 186.356 62.5865 185.569C62.8816 184.979 63.0784 184.487 63.1768 184.192C63.2752 183.897 63.2752 183.503 63.1768 183.208L61.8978 181.634L62.5865 180.65L64.7509 182.322C64.6526 182.519 64.5542 182.913 64.4558 183.503C64.3574 183.995 64.259 184.388 64.1606 184.782C64.0622 185.176 63.8655 185.667 63.5703 186.258C62.7832 187.438 61.8978 188.324 61.0123 188.914Z" fill="#313131"/>
<path d="M64.0624 157.529L64.8494 158.021L64.0624 159.694L71.9332 164.81L70.851 162.252L68.2929 154.184L67.8994 153.889L66.8171 155.168L66.0301 154.676L68.8833 150.347L69.6703 150.839L69.08 152.216L78.8203 158.611L79.8041 157.431L80.5912 157.923L77.738 162.252L76.9509 161.76L77.738 160.284L69.7687 155.069L70.851 157.431L73.409 165.695L73.9993 166.089L75.0816 164.711L75.8687 165.203L73.0155 169.631L72.2284 169.139L72.9171 167.761L63.1769 161.366L62.193 162.448L61.4059 161.956L64.0624 157.529Z" fill="#313131"/>
<path d="M71.343 147.297C71.5398 146.805 71.7365 146.313 71.9333 145.919C72.1301 145.526 72.3268 145.231 72.5236 144.936C73.4091 143.657 74.3929 142.87 75.2784 142.476C76.1639 142.082 77.0494 142.279 77.9348 142.87C78.7219 143.46 79.2139 144.149 79.3123 145.034C79.4106 145.92 79.3122 146.707 78.9187 147.592C79.6074 146.707 80.3945 146.116 81.28 146.018C82.1655 145.821 82.9525 146.018 83.7396 146.608C84.8219 147.395 85.4122 148.379 85.5106 149.461C85.609 150.544 85.117 151.823 84.0348 153.298C83.6412 153.889 83.1493 154.381 82.7558 154.774C82.3622 155.168 81.9687 155.463 81.6735 155.66C81.3784 155.857 81.1816 155.955 81.1816 156.053L78.7219 153.889L79.3123 153.102L81.5751 154.086C82.1654 153.79 82.8541 153.2 83.4445 152.315C83.9364 151.626 84.1332 150.937 83.9364 150.347C83.7396 149.658 83.3461 149.068 82.4606 148.478C81.8703 147.986 81.1816 147.789 80.4929 147.887C79.8042 147.986 79.1155 148.478 78.4268 149.363L77.6397 150.445L76.7542 149.855L77.3445 148.969C77.6397 148.576 77.8364 148.084 77.9348 147.592C78.0332 147.1 78.0332 146.608 77.8365 146.116C77.6397 145.624 77.2461 145.231 76.7542 144.837C76.0655 144.345 75.4752 144.149 74.8849 144.345C74.2946 144.542 73.8026 144.936 73.3107 145.526C73.0155 146.018 72.8188 146.411 72.622 146.805C72.4252 147.199 72.5236 147.494 72.622 147.69L73.8026 148.969L73.1139 149.953L70.6543 148.379C70.851 148.182 71.0478 147.789 71.343 147.297Z" fill="#313131"/>
<path d="M81.6734 134.9L80.4928 135.983L79.8041 135.392L81.3782 133.424C81.6734 133.129 81.9685 132.637 82.3621 132.145C82.6572 131.654 82.9524 131.26 83.1492 131.063C84.2314 129.686 85.2153 128.899 86.1008 128.702C86.9863 128.505 87.8717 128.702 88.6588 129.292C89.3475 129.883 89.7411 130.571 89.9378 131.358C90.1346 132.145 89.9378 132.933 89.5443 133.72C90.233 132.736 91.1185 132.244 92.0039 132.047C92.8894 131.85 93.7749 132.145 94.4636 132.736C95.4475 133.523 95.9394 134.507 96.0378 135.687C96.1362 136.868 95.4474 138.245 94.1684 139.918C93.8733 140.312 93.5781 140.607 93.283 140.902C92.5943 141.591 92.2991 142.082 92.1023 142.181L90.5282 144.149L89.8394 143.558L90.6265 142.279L81.6734 134.9ZM87.4782 135.687L88.1669 134.9C88.7572 134.212 88.954 133.523 88.8556 132.933C88.7572 132.342 88.3637 131.654 87.675 131.063C86.9863 130.473 86.3959 130.276 85.8056 130.375C85.2153 130.473 84.5266 130.965 83.9363 131.752C83.6411 132.145 83.346 132.441 83.1492 132.834L82.9524 133.129L86.9862 136.376C86.8879 136.376 87.183 136.081 87.4782 135.687ZM93.3813 139.229C94.1684 138.245 94.562 137.36 94.4636 136.573C94.3652 135.786 93.9717 135.097 93.283 134.507C92.4959 133.916 91.8072 133.621 91.2168 133.72C90.5281 133.818 89.9378 134.31 89.2491 135.195C88.462 136.179 87.9701 136.77 87.7733 137.065L92.1023 140.607C92.2991 140.508 92.6926 140.016 93.3813 139.229Z" fill="#313131"/>
<path d="M91.1186 121.618L92.496 120.044L105.188 125.16L106.073 124.373L106.762 124.963L103.515 128.702L102.827 128.112L103.712 126.833L101.056 125.652L97.4153 129.784L98.8911 132.244L100.072 131.162L100.76 131.752L97.8088 135.097L97.1201 134.507L97.7104 133.523L91.1186 121.618ZM94.1685 122.7L92.5944 122.012L93.5782 123.487L96.825 128.899L99.9733 125.357L94.1685 122.7Z" fill="#313131"/>
<path d="M108.434 122.208C107.352 122.504 106.27 122.405 105.089 122.11C104.007 121.716 102.925 121.028 101.843 120.044C100.859 119.06 100.17 117.978 99.7765 116.895C99.383 115.813 99.3829 114.534 99.6781 113.452C99.9733 112.271 100.564 111.287 101.449 110.304C102.138 109.615 103.023 108.926 104.204 108.139L104.696 107.746L106.959 110.205L106.073 111.091L104.007 109.812C103.81 109.812 103.515 110.008 103.122 110.205C102.728 110.402 102.335 110.796 101.941 111.189C101.351 111.779 101.056 112.468 100.957 113.157C100.859 113.944 100.957 114.731 101.351 115.616C101.744 116.502 102.433 117.387 103.318 118.175C104.204 118.962 105.089 119.65 105.975 120.044C106.86 120.437 107.746 120.634 108.631 120.634C109.517 120.634 110.205 120.241 110.894 119.552C111.386 119.06 111.681 118.666 111.78 118.371C111.976 118.076 112.075 117.683 112.075 117.387L111.288 115.518L112.173 114.731L113.747 116.895C113.551 117.092 113.354 117.387 113.157 117.879C112.96 118.273 112.763 118.666 112.468 119.06C112.272 119.454 111.878 119.847 111.484 120.241C110.599 121.323 109.517 121.913 108.434 122.208Z" fill="#313131"/>
<path d="M113.255 102.531C113.059 101.449 113.059 100.367 113.354 99.383C113.649 98.3991 114.141 97.612 114.928 96.825C115.813 95.9395 116.797 95.4475 117.781 95.2508C118.765 95.054 119.847 95.1524 120.831 95.6443C121.815 96.1363 122.799 96.825 123.783 97.7104C124.865 98.7927 125.554 99.9733 125.947 101.154C126.341 102.335 126.439 103.417 126.144 104.499C125.849 105.581 125.357 106.467 124.57 107.254C123.684 108.139 122.7 108.631 121.618 108.828C120.634 109.025 119.552 108.926 118.568 108.533C117.584 108.139 116.502 107.451 115.617 106.467L113.452 108.533L117.191 112.468L118.47 111.484L119.06 112.173L115.321 115.715L114.731 115.026L115.715 113.846L107.746 105.385L106.467 106.27L105.778 105.581L109.418 102.138L110.107 102.827L109.123 104.007L112.567 107.647L114.829 105.581C114.042 104.696 113.55 103.712 113.255 102.531ZM114.633 100.859C114.829 102.138 115.617 103.515 117.092 104.991C118.371 106.27 119.552 107.156 120.831 107.451C122.11 107.746 123.094 107.549 124.078 106.664C124.963 105.876 125.258 104.794 124.963 103.614C124.668 102.433 123.881 101.056 122.504 99.5798C121.225 98.3008 120.044 97.4153 118.863 97.1201C117.683 96.825 116.6 97.0217 115.715 97.8088C114.829 98.5959 114.436 99.5798 114.633 100.859Z" fill="#313131"/>
<path d="M132.047 92.5945C132.834 92.7913 133.818 93.0864 135.097 93.3816C135.983 93.6767 136.573 93.8735 137.065 93.9719C137.557 94.0703 137.753 94.0703 137.95 93.9719L138.639 93.6768L139.229 94.3655L137.458 95.8412C137.262 96.038 136.868 96.038 136.278 95.9396C135.687 95.8412 134.9 95.5461 133.818 95.1525C132.637 94.6606 131.654 94.3655 130.965 94.1687C130.276 93.9719 129.784 94.0703 129.489 94.2671L128.604 95.0542L132.047 99.088L133.425 98.2025L134.015 98.8912L130.079 102.236L129.489 101.548L130.571 100.465L123.094 91.6106L121.815 92.3977L121.225 91.709L125.062 88.4623L125.652 89.151L124.57 90.3316L128.013 94.4638L129.194 93.3816L128.604 86.7897L127.226 87.6752L126.636 86.9865L130.178 84.0349L130.768 84.7236L129.784 85.8059L130.178 92.5945C130.571 92.4961 131.26 92.4961 132.047 92.5945Z" fill="#313131"/>
<path d="M141.394 91.9058C140.311 92.0042 139.328 91.709 138.344 91.1187C137.36 90.5284 136.376 89.7413 135.491 88.5607C134.605 87.3801 134.015 86.2978 133.818 85.1172C133.621 83.9365 133.621 82.8543 134.015 81.772C134.408 80.6898 135.097 79.8043 135.982 79.1156C137.557 77.935 139.032 77.5414 140.607 77.8366C142.181 78.1318 143.657 79.214 144.936 80.8866C145.821 82.0672 146.411 83.2478 146.608 84.4285C146.805 85.6091 146.805 86.7897 146.411 87.872C146.018 88.9542 145.329 89.8397 144.444 90.5284C143.46 91.4139 142.476 91.8074 141.394 91.9058ZM135.294 83.0511C135.392 84.3301 136.081 85.7075 137.261 87.38C138.442 88.8558 139.623 89.8397 140.803 90.2333C141.984 90.7252 143.066 90.5284 144.05 89.7413C145.034 89.0526 145.428 87.9704 145.329 86.6913C145.231 85.4123 144.542 83.9365 143.263 82.3624C142.082 80.8866 140.902 79.9027 139.721 79.5092C138.541 79.1156 137.458 79.214 136.474 80.0011C135.589 80.7882 135.195 81.772 135.294 83.0511Z" fill="#313131"/>
<path d="M144.345 74.4911L142.968 75.1798L142.476 74.3927L144.542 72.9169C144.936 72.7201 145.329 72.3266 145.821 71.933C146.313 71.5395 146.608 71.2443 146.903 71.146C148.281 70.1621 149.461 69.6702 150.347 69.6702C151.232 69.6702 152.019 70.0637 152.61 70.9492C153.102 71.6379 153.397 72.425 153.298 73.2121C153.2 73.9992 152.905 74.7862 152.315 75.3766C153.298 74.6879 154.184 74.3927 155.069 74.3927C155.955 74.3927 156.742 74.8846 157.332 75.7701C158.021 76.754 158.316 77.9346 158.021 79.0168C157.726 80.1975 156.742 81.3781 155.069 82.5587C154.676 82.8539 154.381 83.0507 153.987 83.2474C153.2 83.7394 152.708 84.1329 152.511 84.2313L150.445 85.7071L149.953 85.0184L151.134 83.9361L144.345 74.4911ZM149.757 76.8523L150.642 76.262C151.331 75.7701 151.724 75.1798 151.823 74.4911C151.921 73.8024 151.724 73.1137 151.134 72.425C150.642 71.7363 150.052 71.3427 149.461 71.2443C148.871 71.146 148.084 71.4411 147.199 72.0314C146.805 72.3266 146.51 72.6217 146.116 72.9169L145.821 73.2121L148.871 77.4427C148.969 77.3443 149.265 77.1475 149.757 76.8523ZM154.381 81.87C155.365 81.1813 155.955 80.3942 156.152 79.6072C156.348 78.8201 156.152 78.1314 155.561 77.2459C154.971 76.4588 154.381 76.0653 153.79 75.9669C153.102 75.8685 152.315 76.1636 151.429 76.8523C150.347 77.541 149.757 78.033 149.461 78.2298L152.708 82.7555C153.003 82.8539 153.594 82.4604 154.381 81.87Z" fill="#313131"/>
<path d="M168.253 57.3721L168.745 58.1592L167.564 59.2414L173.664 69.08L175.239 68.2929L175.731 69.08L171.303 71.8348L170.811 71.0477L171.992 70.0639L165.794 60.1269L160.677 63.2752L166.876 73.2122L168.45 72.4251L168.942 73.2122L164.515 75.967L164.023 75.18L165.203 74.1961L159.103 64.3575L157.627 65.0462L157.136 64.2591L168.253 57.3721Z" fill="#313131"/>
<path d="M178.78 66.5221C177.698 66.4237 176.714 66.0302 175.829 65.3415C174.943 64.6528 174.156 63.6689 173.468 62.3899C172.779 61.1109 172.385 59.9302 172.287 58.6512C172.189 57.4706 172.484 56.3883 172.976 55.4045C173.468 54.4206 174.255 53.6335 175.337 53.0432C177.009 52.0594 178.584 51.8626 180.158 52.4529C181.634 53.0432 182.913 54.2238 183.995 56.1916C184.684 57.4706 185.077 58.7496 185.176 59.9302C185.274 61.2093 184.979 62.2915 184.388 63.2754C183.798 64.2592 183.011 65.0463 182.027 65.6366C180.847 66.3253 179.863 66.6205 178.78 66.5221ZM173.96 56.7819C173.861 58.0609 174.353 59.5367 175.337 61.3077C176.222 62.9802 177.305 64.0625 178.387 64.6528C179.469 65.2431 180.65 65.2431 181.634 64.6528C182.716 64.0625 183.208 63.177 183.306 61.7996C183.405 60.5206 182.913 58.9464 181.929 57.1754C181.043 55.5029 179.961 54.4206 178.879 53.8303C177.797 53.24 176.714 53.24 175.632 53.8303C174.648 54.6174 174.058 55.6013 173.96 56.7819Z" fill="#313131"/>
<path d="M190.193 55.3061C190.784 56.9787 190.98 58.2577 190.882 59.3399C190.882 59.8319 190.685 60.3238 190.488 60.6189C190.292 60.9141 189.997 61.2093 189.603 61.406C189.111 61.7012 188.619 61.7996 188.422 61.898L187.635 60.6189C187.93 60.5206 188.324 60.3238 188.914 60.0286C189.111 59.9302 189.308 59.8319 189.406 59.6351C189.505 59.4383 189.603 59.2415 189.603 58.9464C189.8 57.1754 188.816 54.3222 186.75 50.19L186.061 48.911L183.995 49.6981L183.601 48.911L193.243 44.0901L193.637 44.8772L192.161 45.861L197.375 56.29L199.146 55.6013L199.54 56.3883L194.424 58.9464L194.03 58.1593L195.703 57.077L190.488 46.6481L187.143 48.3207L187.93 49.7965C188.816 51.8626 189.603 53.7319 190.193 55.3061Z" fill="#313131"/>
<path d="M196.982 43.4999L195.506 43.8934L195.113 43.008L203.771 39.0725L205.246 41.6305L204.263 42.0241L202.983 40.5483L198.753 42.3192L200.917 47.1402L203.771 45.7628L203.377 44.287L204.361 43.8934L206.132 47.8289L205.148 48.2224L204.263 46.845L201.409 48.124L203.672 53.2401L208.395 50.8788L208.296 48.3208L209.477 48.2224L210.362 51.3708L200.917 55.6014L200.524 54.8143L201.901 54.0272L196.982 43.4999Z" fill="#313131"/>
<path d="M211.248 37.203L208.296 38.482L209.182 42.3191L208.001 42.811L206.427 38.0885L217.25 33.7595L219.316 38.2853L218.233 38.6788L216.167 35.2353L213.117 36.3176L217.545 47.2384L220.103 46.4513L220.398 47.3368L213.806 49.9932L213.511 49.1078L215.675 48.0255L211.248 37.203Z" fill="#313131"/>
<path d="M227.383 38.3835L226.498 38.6787C226.301 38.9739 226.104 39.4658 226.006 40.0561C225.907 40.7448 225.809 41.5319 225.809 42.5158C225.711 43.4996 225.711 44.1883 225.612 44.6803C225.514 45.1722 225.415 45.4673 225.219 45.5657L222.857 46.4512L222.562 45.5657L223.153 45.1722C223.349 45.0738 223.448 44.877 223.546 44.4835C223.644 44.0899 223.743 43.4996 223.841 42.7125C223.94 41.8271 224.136 41.04 224.235 40.4497C224.432 39.8593 224.628 39.3674 224.924 39.0723C224.038 39.1706 223.251 38.9739 222.562 38.4819C221.874 37.99 221.382 37.3013 221.086 36.4158C220.595 35.0384 220.693 33.8578 221.283 33.0707C221.972 32.1852 223.054 31.4965 224.628 31.0046C224.924 30.9062 225.415 30.7094 226.006 30.611C226.596 30.4143 226.99 30.3159 227.285 30.2175L229.843 29.332L230.138 30.2175L228.761 30.9062L232.598 41.7287L234.27 41.3351L234.565 42.2206L229.351 44.0899L229.056 43.2045L230.728 42.4174L229.056 37.6948L227.383 38.3835ZM226.301 31.3981C225.711 31.4965 225.317 31.6933 224.825 31.7917C223.94 32.0868 223.251 32.5788 222.956 33.0707C222.562 33.661 222.562 34.4481 222.956 35.432C223.251 36.4158 223.841 37.0061 224.432 37.3997C225.12 37.6948 225.907 37.6948 226.793 37.3997C227.777 37.1045 228.367 36.8094 228.662 36.711L226.793 31.2998L226.301 31.3981Z" fill="#313131"/>
<path d="M236.533 28.1515L233.483 29.2338L233.975 33.1692L232.795 33.5628L231.614 28.6435L242.732 25.2L244.404 29.9225L243.322 30.2176L241.551 26.6757L238.403 27.5612L241.846 38.8756L244.404 38.2853L244.699 39.1708L237.911 41.2369L237.615 40.3514L239.878 39.4659L236.533 28.1515Z" fill="#313131"/>
<path d="M254.931 35.629C253.849 35.2355 252.964 34.6452 252.177 33.7597C251.39 32.8742 250.898 31.6936 250.504 30.3162C250.209 28.9388 250.209 27.6597 250.504 26.4791C250.799 25.2985 251.389 24.3146 252.275 23.5275C253.16 22.7404 254.144 22.1501 255.423 21.855C256.309 21.6582 257.489 21.4614 258.867 21.4614H259.457L260.047 24.8066L258.867 25.1017L257.883 22.9372C257.686 22.8388 257.391 22.7404 256.899 22.7404C256.407 22.7404 255.915 22.8388 255.325 22.9372C254.538 23.134 253.948 23.5275 253.456 24.1178C252.964 24.7082 252.669 25.4953 252.472 26.3807C252.373 27.3646 252.373 28.3484 252.669 29.6275C252.964 30.8081 253.357 31.792 253.849 32.579C254.341 33.3661 255.03 34.0548 255.817 34.4484C256.604 34.8419 257.391 34.9403 258.276 34.7435C258.965 34.5468 259.359 34.4484 259.752 34.2516C260.047 34.0548 260.343 33.8581 260.539 33.5629L260.835 31.5952L262.015 31.4968L262.212 34.1532C261.917 34.2516 261.622 34.4484 261.13 34.6452C260.736 34.8419 260.343 35.1371 259.949 35.2355C259.556 35.4322 259.064 35.5306 258.473 35.7274C257.194 36.0226 256.014 36.0226 254.931 35.629Z" fill="#313131"/>
<path d="M266.738 19.3952L266.934 20.2807L265.163 20.871L266.934 30.1193L268.017 27.5613L272.05 20.0839L271.952 19.592L270.279 19.6904L270.083 18.8049L275.1 17.821L275.297 18.7065L273.92 19.1985L276.183 30.6112L277.757 30.5129L277.954 31.3983L272.838 32.3822L272.641 31.4967L274.215 31.0048L272.346 21.6581L271.362 24.0194L267.23 31.5951L267.328 32.2838L269.099 32.087L269.296 32.9725L264.081 33.9564L263.884 33.0709L265.36 32.579L263.097 21.1662L261.622 21.2646L261.425 20.3791L266.738 19.3952Z" fill="#313131"/>
<path d="M286.808 15.9514L287.694 20.7723L286.415 20.9691L285.333 17.3288L281.2 17.8207L282.971 29.5287L286.218 29.2335L286.316 30.119L279.036 31.2013L278.937 30.3158L280.905 29.8239L279.134 18.4111H277.167L277.068 17.5256L286.808 15.9514Z" fill="#313131"/>
<path d="M290.252 16.6403L288.776 16.5419L288.678 15.6565L293.695 15.0661L293.794 15.9516L292.22 16.3452L292.81 21.3628L299.303 20.6741L298.713 15.6565L297.139 15.5581L297.04 14.6726L302.058 14.0823L302.157 14.9677L300.681 15.3613L301.96 26.8725H303.436L303.534 27.7579L298.516 28.3483L298.418 27.4628L299.894 27.0692L299.303 21.658L292.81 22.3467L293.4 27.7579H295.073L295.171 28.6434L290.055 29.2337L289.957 28.3483L291.432 27.9547L290.252 16.6403Z" fill="#313131"/>
<path d="M308.945 13.6887L311.011 13.5903L316.324 26.1837L317.505 26.2821L317.603 27.1676L312.684 27.4628L312.586 26.5773L314.16 26.2821L313.077 23.5273L307.666 23.8225L306.977 26.6757L308.552 26.7741L308.65 27.6595L304.223 27.9547L304.124 27.0692L305.305 26.7741L308.945 13.6887ZM310.323 16.5419L309.732 14.9677L309.437 16.6403L307.961 22.7402L312.684 22.4451L310.323 16.5419Z" fill="#313131"/>
<path d="M322.227 21.9531C322.031 23.6257 321.637 25.0031 321.145 25.8886C320.85 26.3805 320.555 26.6757 320.26 26.8724C319.964 27.0692 319.571 27.1676 319.079 27.1676C318.489 27.1676 317.997 27.1676 317.702 27.0692L317.505 25.5934C317.8 25.5934 318.292 25.5934 318.882 25.5934C319.079 25.5934 319.276 25.495 319.473 25.3966C319.669 25.2983 319.768 25.1015 319.964 24.8063C320.85 23.3305 321.342 20.2806 321.243 15.6564V14.1806H319.177V13.1968L330 13V13.9839L328.229 14.279L328.426 25.8886L330.295 26.0853V26.9708L324.49 27.0692V26.1837L326.458 25.987L326.261 14.3774L322.424 14.4758V16.1484C322.523 18.2145 322.424 20.2806 322.227 21.9531Z" fill="#313131"/>
<path d="M337.969 18.608C339.445 18.7064 340.626 19.0999 341.413 19.7886C342.2 20.4773 342.593 21.5596 342.495 22.8386C342.397 24.3144 341.905 25.3966 341.019 26.0853C340.035 26.8724 338.855 27.1676 337.379 27.1676C337.182 27.1676 336.985 27.1676 336.789 27.1676C336.592 27.1676 336.395 27.1676 336.1 27.0692C335.411 26.9708 334.722 26.9708 334.132 26.8724L331.574 26.7741V25.8886L333.148 25.7902L333.542 14.1806L332.066 13.8855V13L337.379 13.1968V14.0822L335.509 14.279L335.313 18.608H337.969ZM336.001 26.0853C336.198 26.0853 336.592 26.1837 336.985 26.1837C338.068 26.1837 338.855 25.987 339.445 25.3966C340.035 24.8063 340.33 24.0192 340.33 22.937C340.33 21.8548 340.134 21.166 339.543 20.5757C339.051 20.0838 338.264 19.7886 337.182 19.6903H335.313L335.116 25.987C335.51 25.987 335.805 26.0853 336.001 26.0853ZM349.874 13.5903V14.4758L348.103 14.6726L347.709 26.2821L349.48 26.5773V27.4628L343.971 27.266V26.3805L345.742 26.2821L346.135 14.6726L344.364 14.3774V13.4919L349.874 13.5903Z" fill="#313131"/>
<path d="M358.335 15.4597L356.859 15.0661L356.958 14.1807L361.975 14.6726L361.877 15.5581L360.303 15.6565L359.811 20.6741L366.403 21.3629L366.895 16.3452L365.419 15.9516L365.517 15.0661L370.535 15.5581L370.437 16.4435L368.961 16.5419L367.78 28.1515L369.256 28.4466L369.158 29.3321L364.14 28.8402L364.238 27.9547H365.812L366.403 22.5435L359.811 21.8548L359.221 27.266L360.795 27.6596L360.696 28.545L355.58 27.9547L355.679 27.0692H357.253L358.335 15.4597Z" fill="#313131"/>
<path d="M377.225 16.4436L379.291 16.7388L381.849 30.2177L382.932 30.6112L382.833 31.4967L377.914 30.7096L378.012 29.8241L379.586 29.9225L379.193 26.9709L373.782 26.1838L372.503 28.7419L374.077 29.1354L373.978 30.0209L369.551 29.3322L369.649 28.4467H370.83L377.225 16.4436ZM378.012 19.592L377.815 17.9194L377.127 19.4936L374.372 25.1016L379.095 25.7903L378.012 19.592Z" fill="#313131"/>
<path d="M392.475 20.3791L390.507 19.6904L390.704 18.8049L395.525 19.8872L396.312 28.6435L396.411 31.1032L397.493 28.9387L401.822 21.2646L406.643 22.3468L406.446 23.2323L404.38 23.0355L403.298 34.6451L404.872 35.2354L404.675 36.1209L399.46 34.9403L399.657 34.0548L401.33 34.2516L402.314 25.8887L402.707 22.2484L401.33 24.7081L396.214 33.5628L395.033 33.2677L394.049 23.8226L393.754 20.1823L392.672 23.6259L390.114 31.6935L391.885 32.2838L391.688 33.1693L386.966 32.0871L387.162 31.2016L388.736 31.3984L392.475 20.3791Z" fill="#313131"/>
<path d="M413.53 24.1177L415.497 24.708L416.481 38.3837L417.563 38.7772L417.367 39.6627L412.644 38.3837L412.841 37.4982L414.415 37.695L414.317 34.8418L409.102 33.366L407.528 35.8256L409.004 36.4159L408.807 37.3014L404.576 36.1208L404.773 35.2353L405.954 35.3337L413.53 24.1177ZM413.923 27.266V25.5935L413.038 27.0693L409.594 32.3821L414.218 33.6611L413.923 27.266Z" fill="#313131"/>
<path d="M423.171 28.1513L421.892 27.4626L422.188 26.5771L424.549 27.3642C424.942 27.4626 425.434 27.6594 425.828 27.7578C426.517 27.9546 427.107 28.0529 427.697 28.2497C429.37 28.84 430.55 29.5287 431.042 30.4142C431.534 31.2997 431.633 32.3819 431.239 33.5626C430.944 34.5464 430.452 35.2351 429.763 35.8254C429.075 36.4158 428.287 36.7109 427.402 36.8093C426.517 36.9077 425.533 36.8093 424.549 36.5141C424.155 36.4158 423.86 36.3174 423.467 36.1206C423.073 36.0222 422.876 35.9238 422.778 35.8254L421.499 39.7609L423.86 40.7447L423.565 41.6302L417.76 39.7609L418.055 38.8754L419.629 39.1706L423.171 28.1513ZM424.844 35.6287C425.828 35.9238 426.615 35.9238 427.402 35.5303C428.189 35.1367 428.779 34.3496 429.173 32.9722C429.468 31.9884 429.468 31.1029 429.075 30.5126C428.681 29.9223 427.992 29.4303 426.91 29.0368C426.517 28.9384 426.123 28.84 425.631 28.7416C425.336 28.6433 425.139 28.6433 425.139 28.6433L423.073 34.94C423.467 35.1367 423.959 35.3335 424.844 35.6287Z" fill="#313131"/>
<path d="M431.928 43.7947C431.239 42.9092 430.846 41.8269 430.747 40.7447C430.649 39.6624 430.846 38.285 431.338 36.9076C431.829 35.6286 432.518 34.5464 433.404 33.7593C434.289 32.9722 435.371 32.4803 436.552 32.2835C437.733 32.0867 438.913 32.1851 440.094 32.677C440.979 32.9722 442.062 33.5625 443.144 34.2512L443.734 34.5464L442.357 37.5963L441.176 37.2028L441.57 34.8415C441.471 34.6448 441.176 34.448 440.881 34.1528C440.586 33.8577 439.996 33.6609 439.405 33.4641C438.618 33.169 437.929 33.169 437.142 33.3657C436.355 33.5625 435.667 34.0544 435.076 34.7431C434.486 35.4318 433.896 36.4157 433.502 37.498C433.109 38.5802 432.912 39.6624 432.813 40.6463C432.813 41.6302 432.912 42.5156 433.404 43.3027C433.896 44.0898 434.486 44.5817 435.371 44.8769C435.962 45.0737 436.454 45.2705 436.847 45.2705C437.241 45.2705 437.536 45.2705 437.831 45.1721L439.208 43.6963L440.291 44.2866L438.913 46.6479C438.618 46.5495 438.225 46.5495 437.733 46.4511C437.241 46.4511 436.847 46.3527 436.355 46.3527C435.962 46.2543 435.47 46.1559 434.879 45.9592C433.699 45.3688 432.617 44.6801 431.928 43.7947Z" fill="#313131"/>
<path d="M459.279 40.548L458.886 41.4335L457.115 40.8432L453.278 49.4028L455.639 47.927L463.215 44.1883L463.411 43.6964L462.034 42.8109L462.428 41.9254L467.15 44.0899L466.757 44.9754L465.281 44.5819L460.46 55.2076L461.837 55.9947L461.444 56.7817L456.721 54.6172L457.115 53.8302L458.689 54.3221L462.624 45.6641L460.46 47.0415L452.687 50.8786L452.392 51.4689L453.868 52.3544L453.474 53.1415L448.654 50.977L449.047 50.1899L450.523 50.6818L455.344 40.0561L454.065 39.269L454.458 38.3835L459.279 40.548Z" fill="#313131"/>
<path d="M470.594 46.156C471.184 46.2544 471.577 46.4511 471.971 46.5495C472.365 46.6479 472.758 46.8447 473.053 46.9431C474.431 47.6318 475.415 48.4189 475.906 49.3043C476.398 50.1898 476.398 51.0753 475.906 51.9608C475.415 52.8462 474.824 53.4366 473.939 53.6333C473.152 53.9285 472.266 53.9285 471.381 53.6333C472.365 54.2236 473.053 54.9123 473.348 55.6994C473.644 56.4865 473.545 57.372 473.152 58.1591C472.561 59.3397 471.676 60.1268 470.594 60.3236C469.511 60.6187 468.232 60.3236 466.56 59.5365C465.871 59.2413 465.379 58.8478 464.887 58.4543C464.395 58.0607 464.1 57.7655 463.805 57.5688C463.608 57.372 463.411 57.1752 463.313 57.0768L465.084 54.322L465.871 54.7156L465.281 57.0768C465.674 57.6672 466.363 58.1591 467.248 58.651C468.036 59.0446 468.626 59.143 469.315 58.8478C469.905 58.5526 470.495 58.0607 470.889 57.1752C471.282 56.4865 471.282 55.7978 471.184 55.1091C471.086 54.4204 470.397 53.8301 469.413 53.3382L468.232 52.7479L468.724 51.8624L469.708 52.3543C470.2 52.5511 470.692 52.7479 471.184 52.7479C471.676 52.7479 472.168 52.6495 472.66 52.3543C473.152 52.0592 473.447 51.6656 473.742 51.0753C474.135 50.2882 474.234 49.6979 473.939 49.1076C473.742 48.5173 473.25 48.1237 472.463 47.7302C471.971 47.435 471.578 47.3366 471.086 47.2382C470.692 47.1398 470.397 47.2382 470.2 47.3366L469.118 48.714L468.036 48.2221L469.216 45.5657C469.61 45.8608 470.003 45.9592 470.594 46.156Z" fill="#313131"/>
<path d="M484.368 54.519L483.187 53.5351L483.679 52.748L485.843 54.0271C486.237 54.2238 486.729 54.519 487.319 54.8142C487.91 55.1093 488.303 55.3061 488.5 55.4045C489.976 56.29 490.959 57.077 491.255 57.9625C491.648 58.7496 491.55 59.6351 491.058 60.5205C490.566 61.3076 489.976 61.7996 489.287 62.0947C488.598 62.3899 487.713 62.3899 486.827 62.0947C487.91 62.685 488.598 63.3737 488.893 64.2592C489.189 65.1447 489.09 65.9318 488.598 66.8173C488.008 67.8995 487.024 68.5882 485.942 68.785C484.761 68.9818 483.285 68.5882 481.514 67.6044C481.121 67.4076 480.727 67.1124 480.432 66.9156C479.645 66.4237 479.153 66.1286 478.956 66.0302L476.792 64.7512L477.284 63.9641L478.76 64.5544L484.368 54.519ZM481.908 66.7189C482.99 67.3092 483.876 67.6043 484.663 67.4076C485.45 67.2108 486.04 66.7189 486.532 65.9318C487.024 65.1447 487.122 64.3576 486.926 63.7673C486.729 63.177 486.139 62.5867 485.155 61.9963C484.072 61.406 483.384 61.0125 483.089 60.8157L480.334 65.6366C480.432 65.8334 481.022 66.1286 481.908 66.7189ZM484.564 60.3238L485.45 60.8157C486.237 61.2093 486.926 61.406 487.516 61.2093C488.106 61.0125 488.697 60.5206 489.09 59.7335C489.484 58.9464 489.68 58.3561 489.484 57.7657C489.287 57.1754 488.697 56.5851 487.811 56.0932C487.418 55.8964 487.024 55.6996 486.532 55.5029L486.139 55.3061L483.58 59.8318C483.777 59.8318 484.072 60.0286 484.564 60.3238Z" fill="#313131"/>
<path d="M499.027 61.7009L500.798 62.7832L497.748 76.0653L498.634 76.8524L498.142 77.6395L494.009 74.9831L494.501 74.196L495.879 74.8847L496.666 72.0315L492.042 69.0799L489.779 70.9492L491.058 71.9331L490.566 72.7202L486.827 70.3589L487.319 69.5718L488.401 70.0637L499.027 61.7009ZM498.338 64.8493L498.83 63.1767L497.551 64.3573L492.73 68.3912L496.764 70.9492L498.338 64.8493Z" fill="#313131"/>
<path d="M500.995 78.9187C500.503 77.8364 500.405 76.7542 500.601 75.5735C500.798 74.3929 501.29 73.2123 502.176 72.0316C502.963 70.851 503.947 70.0639 505.029 69.4736C506.111 68.8833 507.292 68.6865 508.472 68.7849C509.653 68.8833 510.735 69.2768 511.817 70.0639C512.605 70.6542 513.49 71.4413 514.375 72.4252L514.769 72.9171L512.703 75.5735L511.719 74.8848L512.703 72.622C512.605 72.4252 512.506 72.13 512.211 71.8349C511.916 71.5397 511.522 71.1462 511.03 70.851C510.342 70.3591 509.653 70.1623 508.866 70.1623C508.079 70.1623 507.292 70.4575 506.505 70.9494C505.718 71.4413 504.93 72.2284 504.242 73.2123C503.553 74.1961 503.061 75.18 502.766 76.0655C502.471 77.0493 502.471 77.9348 502.668 78.7219C502.864 79.509 503.356 80.1977 504.143 80.788C504.734 81.1815 505.127 81.3783 505.521 81.4767C505.914 81.5751 506.209 81.6735 506.505 81.5751L508.177 80.4928L509.063 81.2799L507.193 83.2477C506.996 83.1493 506.603 82.9525 506.111 82.7557C505.619 82.6573 505.226 82.4606 504.832 82.2638C504.438 82.067 503.947 81.8702 503.455 81.4767C502.274 80.8864 501.487 80.0009 500.995 78.9187Z" fill="#313131"/>
<path d="M521.164 80.6895C522.246 80.296 523.23 80.1976 524.214 80.296C525.198 80.3944 526.182 80.8863 526.969 81.4766C527.953 82.2637 528.543 83.0508 528.937 84.0346C529.232 85.0185 529.33 86.0024 529.035 87.0846C528.74 88.1669 528.248 89.2491 527.362 90.3313C526.477 91.512 525.395 92.3975 524.312 92.9878C523.23 93.5781 522.148 93.7749 520.967 93.6765C519.787 93.5781 518.901 93.1846 518.016 92.4959C517.032 91.7088 516.343 90.8233 515.95 89.8394C515.556 88.8556 515.556 87.8717 515.753 86.7895C516.048 85.7072 516.54 84.625 517.327 83.5427L514.966 81.6734L511.621 86.0024L512.801 87.183L512.211 87.8717L508.177 84.7233L508.767 84.0346L510.145 84.8217L517.229 75.6718L516.146 74.5896L516.737 73.8025L520.672 76.8525L520.082 77.6395L518.704 76.8525L515.654 80.7879L518.016 82.6572C519.196 81.7718 520.18 81.1815 521.164 80.6895ZM523.132 81.7718C521.951 82.1653 520.672 83.1492 519.393 84.8217C518.311 86.2975 517.622 87.5765 517.524 88.8556C517.425 90.1346 517.819 91.1184 518.803 91.9055C519.787 92.5942 520.77 92.791 521.951 92.2991C523.132 91.9055 524.312 90.8233 525.591 89.2491C526.674 87.7733 527.362 86.4943 527.461 85.2153C527.559 83.9363 527.166 82.9524 526.28 82.2637C525.395 81.575 524.312 81.3782 523.132 81.7718Z" fill="#313131"/>
<path d="M533.954 97.7104C533.954 98.4975 533.757 99.5797 533.561 100.859C533.364 101.744 533.364 102.433 533.265 102.826C533.265 103.22 533.266 103.614 533.364 103.712L533.757 104.302L533.167 104.991L531.396 103.515C531.199 103.318 531.101 102.925 531.199 102.335C531.298 101.744 531.396 100.859 531.593 99.7765C531.888 98.4975 531.987 97.5136 532.085 96.8249C532.183 96.1362 531.986 95.6443 531.79 95.3491L530.904 94.562L527.461 98.5959L528.543 99.8749L527.953 100.564L524.116 97.2185L524.706 96.5298L525.985 97.4153L533.561 88.6589L532.577 87.4783L533.167 86.7896L536.906 90.0363L536.315 90.725L535.036 89.8395L531.495 93.8733L532.675 94.9556L539.07 93.3814L537.988 92.2008L538.578 91.5121L542.022 94.562L541.432 95.2507L540.153 94.4637L533.561 95.9395C533.856 96.333 533.954 96.9233 533.954 97.7104Z" fill="#313131"/>
<path d="M536.02 106.86C535.824 105.876 535.824 104.794 536.315 103.712C536.709 102.63 537.398 101.547 538.382 100.563C539.365 99.4812 540.448 98.7925 541.53 98.3989C542.711 98.0054 543.793 97.907 544.875 98.1038C545.957 98.3005 546.941 98.7925 547.827 99.6779C549.204 101.055 549.893 102.433 549.794 104.105C549.696 105.679 548.909 107.254 547.433 108.828C546.449 109.91 545.367 110.599 544.186 111.091C543.006 111.484 541.923 111.583 540.743 111.386C539.661 111.189 538.677 110.599 537.791 109.812C536.807 108.828 536.315 107.844 536.02 106.86ZM543.891 99.3828C542.711 99.6779 541.333 100.563 539.956 102.039C538.677 103.417 537.89 104.696 537.693 105.975C537.398 107.254 537.791 108.238 538.677 109.123C539.562 109.91 540.644 110.205 541.825 109.91C543.104 109.615 544.383 108.729 545.761 107.254C547.04 105.876 547.827 104.597 548.023 103.318C548.22 102.138 547.925 101.055 547.04 100.17C546.154 99.3828 545.17 99.0876 543.891 99.3828Z" fill="#313131"/>
<path d="M553.73 107.155L552.844 105.876L553.533 105.188L555.304 106.959C555.599 107.254 555.993 107.647 556.485 108.041C556.977 108.434 557.272 108.73 557.468 108.926C558.649 110.205 559.338 111.189 559.436 112.173C559.535 113.157 559.239 113.846 558.551 114.633C557.96 115.223 557.173 115.617 556.386 115.715C555.599 115.813 554.812 115.617 554.025 115.026C554.91 115.912 555.304 116.699 555.402 117.683C555.501 118.568 555.107 119.355 554.418 120.044C553.533 120.93 552.451 121.323 551.27 121.225C550.09 121.126 548.81 120.339 547.335 118.863C547.04 118.568 546.744 118.175 546.449 117.88C545.76 117.191 545.367 116.699 545.269 116.601L543.498 114.83L544.186 114.239L545.367 115.223L553.73 107.155ZM547.925 118.175C548.81 119.06 549.598 119.552 550.385 119.552C551.172 119.552 551.86 119.257 552.549 118.568C553.238 117.88 553.533 117.191 553.533 116.601C553.533 116.01 553.139 115.223 552.352 114.436C551.467 113.551 550.877 112.96 550.68 112.763L546.646 116.601C546.843 116.994 547.236 117.486 547.925 118.175ZM552.254 112.763L552.943 113.551C553.533 114.141 554.222 114.436 554.812 114.436C555.501 114.436 556.091 114.141 556.78 113.452C557.37 112.862 557.665 112.272 557.665 111.681C557.665 111.091 557.272 110.402 556.485 109.615C556.189 109.32 555.796 109.025 555.501 108.631L555.206 108.336L551.467 111.976C551.664 112.173 551.86 112.37 552.254 112.763Z" fill="#313131"/>
<path d="M574.391 128.013L573.702 128.603L572.522 127.521L563.765 135.097L564.749 136.573L564.06 137.163L560.617 133.129L561.306 132.539L562.486 133.621L571.341 126.045L567.406 121.52L558.551 129.194L559.535 130.67L558.846 131.26L555.402 127.324L556.091 126.734L557.173 127.718L565.93 120.142L565.044 118.765L565.733 118.175L574.391 128.013Z" fill="#313131"/>
<path d="M566.914 139.918C566.815 138.836 567.11 137.852 567.602 136.868C568.193 135.884 568.98 134.9 570.062 134.015C571.144 133.129 572.325 132.539 573.505 132.342C574.686 132.146 575.768 132.146 576.851 132.539C577.933 132.933 578.818 133.621 579.507 134.507C580.688 136.081 581.18 137.557 580.786 139.131C580.491 140.705 579.409 142.181 577.736 143.46C576.555 144.345 575.375 144.936 574.194 145.133C573.014 145.329 571.833 145.329 570.751 144.936C569.668 144.542 568.783 143.854 567.996 142.968C567.406 141.984 566.914 140.902 566.914 139.918ZM575.768 133.72C574.489 133.818 573.112 134.507 571.439 135.786C569.964 136.967 568.98 138.147 568.586 139.328C568.193 140.508 568.291 141.591 569.078 142.575C569.865 143.558 570.849 143.952 572.128 143.854C573.407 143.755 574.883 143.066 576.457 141.787C577.933 140.607 578.917 139.426 579.31 138.246C579.704 137.065 579.507 135.983 578.818 134.999C578.031 134.015 577.047 133.621 575.768 133.72Z" fill="#313131"/>
<path d="M579.704 149.363C578.13 150.15 576.851 150.642 575.867 150.74C575.375 150.74 574.883 150.74 574.588 150.544C574.194 150.347 573.899 150.15 573.604 149.757C573.21 149.265 573.013 148.871 572.915 148.576L574.096 147.592C574.194 147.887 574.489 148.281 574.883 148.773C574.981 148.97 575.178 149.068 575.375 149.166C575.572 149.265 575.768 149.265 576.063 149.265C577.834 149.166 580.589 147.789 584.229 145.132L585.41 144.247L584.328 142.378L585.115 141.787L591.412 150.544L590.625 151.134L589.444 149.855L579.999 156.644L580.884 158.218L580.097 158.71L576.752 153.987L577.539 153.495L578.818 154.971L588.263 148.182L586.099 145.132L584.721 146.116C582.95 147.592 581.278 148.576 579.704 149.363Z" fill="#313131"/>
<path d="M592.494 154.282L591.805 152.905L592.592 152.413L597.807 160.382L595.544 162.153L594.954 161.268L596.134 159.792L593.675 155.857L589.247 158.71L591.018 161.268L592.494 160.678L593.084 161.563L589.444 163.924L588.854 163.039L590.034 161.957L588.362 159.3L583.738 162.35L586.788 166.679L589.346 166.187L589.641 167.269L586.591 168.548L580.884 159.89L581.672 159.399L582.655 160.579L592.494 154.282Z" fill="#313131"/>
<path d="M600.955 167.368L599.184 164.711L595.445 166.187L594.855 165.105L599.283 162.842L605.284 172.877L601.053 175.632L600.463 174.648L603.513 172.09L601.939 169.237L591.805 175.239L592.986 177.6L592.199 178.092L588.558 171.992L589.345 171.5L590.723 173.468L600.955 167.368Z" fill="#313131"/>
<path d="M602.234 183.503L601.841 182.716C601.545 182.519 601.054 182.519 600.365 182.519C599.676 182.519 598.889 182.618 597.905 182.716C596.921 182.814 596.233 182.814 595.741 182.814C595.249 182.814 594.954 182.716 594.855 182.519L593.675 180.256L594.462 179.863L594.954 180.453C595.052 180.551 595.347 180.65 595.741 180.748C596.134 180.748 596.725 180.748 597.512 180.847C598.397 180.847 599.184 180.847 599.873 180.847C600.463 180.945 600.955 181.043 601.349 181.24C601.152 180.355 601.25 179.568 601.546 178.879C601.939 178.092 602.529 177.502 603.316 177.108C604.595 176.419 605.776 176.321 606.662 176.813C607.547 177.305 608.433 178.289 609.22 179.764C609.416 180.06 609.613 180.552 609.81 181.043C610.007 181.634 610.203 182.027 610.4 182.322L611.679 184.684L610.892 185.176L609.908 183.897L599.676 189.406L600.365 190.98L599.578 191.276L596.921 186.455L597.708 186.061L598.692 187.537L603.021 185.176L602.234 183.503ZM608.924 181.437C608.728 180.945 608.531 180.453 608.334 180.06C607.842 179.174 607.35 178.682 606.76 178.387C606.17 178.092 605.383 178.289 604.497 178.781C603.612 179.272 603.021 179.863 602.825 180.552C602.628 181.24 602.726 182.027 603.218 182.913C603.71 183.798 604.005 184.389 604.202 184.585L609.22 181.831L608.924 181.437Z" fill="#313131"/>
<path d="M613.746 190.981L612.27 188.127L608.433 189.308L607.941 188.226L612.565 186.356L617.681 196.785L613.254 199.147L612.762 198.064L616.008 195.802L614.729 192.85L604.104 197.966L605.087 200.426L604.3 200.819L601.152 194.424L601.939 194.031L603.218 196.097L613.746 190.981Z" fill="#313131"/>
<path d="M609.22 210.264C609.416 209.182 609.908 208.099 610.695 207.312C611.482 206.427 612.565 205.738 613.844 205.148C615.123 204.656 616.402 204.361 617.582 204.557C618.763 204.656 619.845 205.148 620.829 205.836C621.813 206.525 622.502 207.509 622.994 208.69C623.387 209.575 623.682 210.657 623.879 212.035L623.977 212.625L620.829 213.707L620.337 212.527L622.305 211.149C622.403 210.953 622.403 210.559 622.305 210.166C622.206 209.772 622.108 209.182 621.813 208.69C621.518 208.001 621.026 207.411 620.337 207.017C619.648 206.624 618.861 206.427 617.877 206.427C616.894 206.427 615.91 206.722 614.729 207.116C613.647 207.607 612.761 208.099 611.974 208.788C611.187 209.477 610.695 210.165 610.4 210.953C610.105 211.74 610.203 212.625 610.499 213.412C610.794 214.003 610.991 214.494 611.286 214.79C611.482 215.085 611.778 215.282 612.073 215.478H614.04L614.336 216.659L611.679 217.249C611.581 217.053 611.384 216.659 610.99 216.265C610.695 215.872 610.4 215.577 610.203 215.183C610.007 214.79 609.711 214.396 609.515 213.806C609.22 212.625 609.023 211.444 609.22 210.264Z" fill="#313131"/>
<path d="M627.126 219.513L626.24 219.808L625.355 218.135L616.5 221.382L619.157 222.071L627.224 224.825L627.716 224.629L627.323 222.956L628.208 222.661L629.979 227.482L629.094 227.777L628.405 226.498L617.484 230.532L617.878 232.106L616.992 232.401L615.221 227.482L616.107 227.187L616.894 228.662L625.847 225.416L623.289 224.825L615.123 221.972L614.533 222.169L614.926 223.842L614.041 224.137L612.27 219.217L613.155 218.922L613.844 220.3L624.765 216.266L624.47 214.79L625.355 214.495L627.126 219.513Z" fill="#313131"/>
<path d="M633.619 238.796L628.995 240.37L628.602 239.19L632.045 237.517L630.963 233.582L619.747 237.124L620.534 240.272L619.648 240.567L617.386 233.582L618.271 233.287L619.058 235.156L630.077 231.614L629.684 229.646L630.569 229.351L633.619 238.796Z" fill="#313131"/>
<path d="M633.423 242.24L633.226 240.764L634.111 240.567L635.39 245.486L634.505 245.683L633.915 244.207L629.094 245.486L630.766 251.882L635.587 250.603L635.39 249.127L636.276 248.93L637.555 253.751L636.669 253.948L636.079 252.57L624.863 255.62L625.06 257.096L624.174 257.293L622.895 252.472L623.781 252.275L624.371 253.751L629.585 252.373L627.913 245.978L622.698 247.356L622.895 248.93L622.01 249.127L620.632 244.207L621.518 244.011L622.108 245.388L633.423 242.24Z" fill="#313131"/>
<path d="M639.326 260.244L639.818 262.212L628.208 269.394L628.306 270.575L627.421 270.772L626.339 265.951L627.224 265.754L627.716 267.23L630.274 265.754L629.094 260.441L626.24 260.146L626.437 261.72L625.552 261.917L624.568 257.588L625.453 257.391L625.847 258.473L639.326 260.244ZM636.669 262.114L638.145 261.327L636.374 261.228L630.077 260.638L631.061 265.262L636.669 262.114Z" fill="#313131"/>
<path d="M633.226 274.707C631.455 274.707 630.176 274.609 629.192 274.215C628.7 274.018 628.306 273.822 628.11 273.527C627.814 273.231 627.716 272.838 627.618 272.444C627.519 271.854 627.421 271.46 627.519 271.165L628.995 270.772C628.995 271.067 629.093 271.559 629.192 272.149C629.192 272.346 629.29 272.543 629.487 272.739C629.585 272.936 629.782 273.035 630.077 273.133C631.652 273.822 634.8 273.723 639.227 272.936L640.703 272.641L640.506 270.477L641.392 270.28L643.261 280.906L642.376 281.102L641.884 279.43L630.471 281.397L630.569 283.267L629.684 283.464L628.7 277.757L629.585 277.56L630.077 279.43L641.49 277.462L640.801 273.723L639.129 274.018C636.866 274.412 634.898 274.609 633.226 274.707Z" fill="#313131"/>
<path d="M638.932 289.662C639.129 291.137 638.932 292.417 638.243 293.302C637.653 294.187 636.669 294.679 635.39 294.876C634.013 295.073 632.832 294.679 631.947 293.892C631.061 293.105 630.569 291.925 630.373 290.449C630.373 290.252 630.373 290.055 630.274 289.858C630.176 289.662 630.274 289.465 630.274 289.17C630.274 288.481 630.176 287.792 630.176 287.202L629.881 284.644L630.766 284.546L631.16 286.12L642.769 284.742L642.868 283.168L643.753 283.07L644.343 288.383L643.458 288.481L642.868 286.71L638.539 287.202L638.932 289.662ZM631.258 288.973C631.258 289.17 631.258 289.563 631.356 289.957C631.455 291.039 631.848 291.728 632.537 292.22C633.226 292.712 634.013 292.908 635.095 292.712C636.079 292.613 636.866 292.22 637.26 291.629C637.752 291.039 637.85 290.252 637.752 289.17L637.555 287.3L631.258 288.088C631.258 288.481 631.258 288.776 631.258 288.973ZM645.721 300.681L644.835 300.779L644.442 299.107L632.931 300.484V302.255L632.045 302.354L631.356 296.942L632.242 296.844L632.635 298.516L644.147 297.139V295.368L645.032 295.27L645.721 300.681Z" fill="#313131"/>
<path d="M645.131 309.339L645.327 307.863H646.213L646.41 312.979H645.524L645.229 311.405L640.211 311.602L640.506 318.194L645.524 317.997L645.721 316.521H646.606L646.803 321.539H645.918L645.623 320.063L634.013 320.653L633.915 322.129H633.029L632.832 317.111H633.718L634.013 318.587L639.424 318.292L639.129 311.7L633.718 311.995L633.619 313.668H632.734L632.537 308.552H633.423L633.718 310.028L645.131 309.339Z" fill="#313131"/>
<path d="M647 328.032V330.098L634.21 334.821L634.013 336.001H633.127L633.029 331.082H633.914L634.111 332.656L636.866 331.771L636.768 326.36L634.013 325.572L633.816 327.147H632.931L632.832 322.719H633.718L633.914 323.9L647 328.032ZM644.048 329.213L645.721 328.721L644.048 328.327L638.047 326.556L638.145 331.279L644.048 329.213Z" fill="#313131"/>
<path d="M645.524 343.872L645.918 341.806L646.803 341.905L646.508 346.824L637.948 348.89L635.587 349.382L637.948 350.071L646.213 353.219L645.918 358.138L645.032 358.04L644.934 355.974L633.226 356.761L632.931 358.335L632.045 358.237L632.34 352.826L633.226 352.924L633.324 354.597L641.785 354.301L645.426 354.105L642.769 353.121L633.226 349.382L633.324 348.201L642.474 345.742L646.114 344.856L642.474 344.266L634.111 342.987L633.816 344.856L632.931 344.758L633.226 339.937L634.111 340.035L634.21 341.61L645.524 343.872Z" fill="#313131"/>
<path d="M645.13 365.32L644.934 367.386L631.652 370.436L631.356 371.519L630.471 371.42L631.061 366.501L631.947 366.599V368.174L634.8 367.583L635.39 362.172L632.734 360.991L632.34 362.566L631.455 362.467L631.947 358.04L632.832 358.138L632.931 359.319L645.13 365.32ZM641.982 366.107L643.655 365.812L642.081 365.222L636.374 362.664L635.882 367.386L641.982 366.107Z" fill="#313131"/>
<path d="M642.572 375.356L643.064 373.978L643.95 374.077L643.556 376.536C643.458 377.028 643.458 377.422 643.36 377.816C643.261 378.504 643.261 379.095 643.163 379.685C642.868 381.456 642.376 382.636 641.589 383.325C640.802 383.915 639.818 384.211 638.44 384.014C637.456 383.817 636.669 383.522 635.981 382.932C635.292 382.341 634.898 381.653 634.603 380.767C634.308 379.882 634.308 378.898 634.505 377.914C634.603 377.52 634.603 377.225 634.702 376.832C634.8 376.438 634.8 376.241 634.898 376.143L630.865 375.553L630.274 378.012L629.389 377.914L630.373 371.912L631.258 372.011L631.16 373.585L642.572 375.356ZM635.489 378.111C635.292 379.095 635.489 379.882 635.981 380.669C636.473 381.456 637.358 381.849 638.735 382.046C639.818 382.243 640.605 382.046 641.097 381.653C641.687 381.161 641.982 380.374 642.179 379.291C642.277 378.898 642.277 378.504 642.277 378.012C642.277 377.717 642.277 377.52 642.277 377.422L635.685 376.438C635.685 376.733 635.587 377.324 635.489 378.111Z" fill="#313131"/>
<path d="M628.503 386.474C629.29 385.686 630.274 385.096 631.356 384.801C632.537 384.506 633.816 384.506 635.193 384.801C636.571 385.096 637.752 385.588 638.637 386.375C639.621 387.162 640.211 388.146 640.605 389.228C640.998 390.311 641.097 391.491 640.801 392.77C640.605 393.754 640.211 394.836 639.719 396.115L639.522 396.706L636.276 395.919L636.472 394.738H638.932C639.129 394.64 639.326 394.344 639.522 393.951C639.719 393.557 639.818 393.065 640.014 392.475C640.211 391.688 640.113 390.999 639.719 390.212C639.424 389.523 638.834 388.933 638.047 388.343C637.26 387.851 636.276 387.457 634.997 387.162C633.816 386.965 632.734 386.867 631.75 386.965C630.766 387.064 629.881 387.359 629.192 387.949C628.503 388.441 628.11 389.13 627.913 390.114C627.814 390.803 627.716 391.294 627.815 391.688C627.815 392.082 627.913 392.377 628.11 392.672L629.782 393.754L629.389 394.836L626.831 393.852C626.831 393.557 626.831 393.164 626.831 392.672C626.831 392.18 626.732 391.786 626.732 391.294C626.732 390.901 626.831 390.311 626.929 389.72C627.224 388.441 627.716 387.359 628.503 386.474Z" fill="#313131"/>
<path d="M635.981 412.939L635.095 412.644L635.39 410.775L626.339 408.315L628.11 410.381L633.029 417.367L633.521 417.465L634.21 415.891L635.095 416.186L633.718 421.106L632.832 420.81L633.029 419.335L621.813 416.285L621.223 417.76L620.337 417.564L621.715 412.546L622.6 412.743L622.305 414.415L631.455 416.973L629.684 415.104L624.764 408.02L624.076 407.823L623.387 409.496L622.502 409.299L623.879 404.183L624.764 404.38L624.568 405.954L635.784 409.004L636.374 407.627L637.26 407.922L635.981 412.939Z" fill="#313131"/>
<path d="M632.242 424.942C632.143 425.533 632.143 426.025 632.045 426.418C631.947 426.812 631.848 427.205 631.75 427.501C631.258 428.976 630.668 430.059 629.881 430.649C629.094 431.239 628.208 431.436 627.224 431.141C626.24 430.846 625.65 430.255 625.256 429.468C624.863 428.681 624.765 427.894 624.863 426.91C624.469 427.992 623.879 428.78 623.092 429.173C622.305 429.567 621.518 429.665 620.632 429.37C619.353 428.976 618.468 428.288 618.074 427.205C617.681 426.221 617.681 424.844 618.271 423.073C618.468 422.384 618.763 421.794 619.058 421.204C619.353 420.712 619.648 420.318 619.845 420.023C620.042 419.728 620.14 419.531 620.239 419.531L623.19 420.81L622.895 421.696L620.436 421.401C619.944 421.893 619.55 422.581 619.157 423.663C618.861 424.451 618.96 425.139 619.255 425.73C619.55 426.32 620.239 426.713 621.223 427.009C621.911 427.205 622.6 427.205 623.289 426.91C623.977 426.615 624.469 425.926 624.765 424.942L625.158 423.663L626.142 423.959L625.847 424.942C625.65 425.434 625.65 425.926 625.65 426.418C625.748 426.91 625.945 427.402 626.24 427.796C626.535 428.189 627.027 428.484 627.618 428.681C628.405 428.976 629.094 428.878 629.585 428.583C630.077 428.288 630.471 427.697 630.766 426.91C630.963 426.418 631.061 425.926 630.963 425.533C630.963 425.139 630.864 424.844 630.668 424.647L629.094 423.762L629.487 422.68L632.242 423.368C632.34 423.959 632.242 424.352 632.242 424.942Z" fill="#313131"/>
<path d="M626.142 439.996L626.929 438.618L627.815 438.913L626.929 441.275C626.732 441.668 626.634 442.16 626.437 442.849C626.241 443.439 626.142 443.833 626.044 444.128C625.453 445.702 624.765 446.784 623.978 447.276C623.191 447.768 622.305 447.867 621.42 447.473C620.633 447.178 619.944 446.686 619.55 445.899C619.157 445.21 619.058 444.423 619.157 443.538C618.763 444.62 618.173 445.407 617.386 445.899C616.599 446.292 615.713 446.391 614.828 445.997C613.647 445.505 612.86 444.718 612.466 443.636C612.073 442.554 612.171 440.98 612.958 439.11C613.155 438.717 613.254 438.323 613.45 437.93C613.844 437.044 614.041 436.454 614.139 436.355L615.025 433.994L615.91 434.289L615.516 435.765L626.142 439.996ZM613.647 439.405C613.155 440.586 613.155 441.57 613.352 442.259C613.549 442.947 614.237 443.538 615.123 443.833C616.008 444.226 616.795 444.226 617.386 443.931C617.976 443.636 618.468 442.947 618.862 441.963C619.354 440.783 619.55 439.996 619.649 439.701L614.434 437.733C614.336 437.831 614.041 438.422 613.647 439.405ZM620.337 440.98L619.944 441.963C619.649 442.75 619.649 443.439 619.944 444.03C620.239 444.62 620.829 445.112 621.616 445.407C622.404 445.702 623.092 445.702 623.683 445.505C624.174 445.21 624.666 444.62 625.06 443.538C625.257 443.144 625.355 442.652 625.453 442.259L625.552 441.865L620.731 439.996C620.731 440.192 620.534 440.488 620.337 440.98Z" fill="#313131"/>
<path d="M621.223 455.54L620.436 457.41L606.76 456.426L606.17 457.41L605.284 457.016L607.252 452.491L608.137 452.884L607.645 454.36L610.499 454.655L612.663 449.637L610.499 447.768L609.711 449.145L608.826 448.752L610.597 444.718L611.482 445.112L611.187 446.292L621.223 455.54ZM617.976 455.344L619.649 455.54L618.271 454.458L613.549 450.326L611.679 454.655L617.976 455.344Z" fill="#313131"/>
<path d="M604.497 460.165C605.481 459.574 606.563 459.279 607.744 459.279C608.924 459.279 610.203 459.673 611.482 460.263C612.761 460.853 613.745 461.641 614.434 462.624C615.123 463.608 615.516 464.69 615.615 465.871C615.713 467.052 615.418 468.232 614.926 469.315C614.532 470.2 613.844 471.184 613.057 472.266L612.663 472.758L609.712 471.086L610.302 470.003L612.663 470.594C612.86 470.495 613.155 470.299 613.45 469.905C613.745 469.61 614.041 469.118 614.237 468.528C614.631 467.839 614.729 467.052 614.532 466.265C614.434 465.478 614.041 464.789 613.352 464.1C612.663 463.411 611.876 462.723 610.695 462.231C609.613 461.739 608.629 461.345 607.645 461.247C606.662 461.149 605.776 461.247 604.989 461.542C604.202 461.837 603.612 462.428 603.218 463.313C602.923 463.903 602.726 464.395 602.726 464.789C602.628 465.182 602.726 465.478 602.726 465.773L604.005 467.249L603.316 468.232L601.152 466.658C601.25 466.461 601.349 466.068 601.447 465.478C601.546 464.986 601.644 464.592 601.742 464.199C601.841 463.805 602.037 463.313 602.333 462.723C602.726 461.739 603.513 460.755 604.497 460.165Z" fill="#313131"/>
<path d="M605.874 480.432C606.465 481.416 606.76 482.4 606.76 483.384C606.76 484.368 606.563 485.352 605.973 486.237C605.382 487.319 604.595 488.106 603.71 488.598C602.824 489.09 601.742 489.287 600.66 489.189C599.578 489.09 598.397 488.697 597.216 488.106C595.937 487.418 594.855 486.532 594.166 485.45C593.478 484.466 592.986 483.384 592.986 482.302C592.887 481.219 593.183 480.137 593.675 479.153C594.265 478.071 595.052 477.284 595.937 476.694C596.823 476.202 597.905 476.005 598.987 476.103C600.07 476.202 601.25 476.595 602.431 477.186L603.907 474.529L599.086 471.873L598.102 473.152L597.315 472.66L599.774 468.134L600.562 468.528L599.971 470.003L610.105 475.611L610.99 474.431L611.778 474.923L609.318 479.35L608.531 478.858L609.121 477.382L604.694 474.923L603.218 477.579C604.497 478.563 605.284 479.448 605.874 480.432ZM605.186 482.4C604.595 481.318 603.415 480.236 601.644 479.252C600.07 478.366 598.594 477.973 597.315 478.071C596.036 478.169 595.052 478.76 594.462 479.842C593.871 480.924 593.871 481.908 594.462 482.99C595.052 484.073 596.233 485.155 598.102 486.139C599.676 487.024 601.053 487.418 602.333 487.418C603.612 487.418 604.497 486.827 605.087 485.745C605.678 484.663 605.678 483.581 605.186 482.4Z" fill="#313131"/>
<path d="M591.018 495.584C590.231 495.682 589.149 495.682 587.87 495.682C586.984 495.682 586.296 495.682 585.804 495.682C585.41 495.682 585.115 495.78 584.918 495.977L584.328 496.469L583.541 495.977L584.721 494.01C584.918 493.813 585.213 493.616 585.902 493.616C586.492 493.616 587.378 493.616 588.558 493.616C589.838 493.714 590.821 493.714 591.609 493.616C592.297 493.616 592.789 493.419 592.986 493.026L593.576 492.042L589.05 489.189L587.968 490.468L587.181 489.976L589.936 485.647L590.723 486.139L590.034 487.516L599.873 493.714L600.857 492.534L601.644 493.026L598.987 497.256L598.2 496.764L598.791 495.289L594.265 492.435L593.379 493.813L595.937 499.913L596.921 498.732L597.708 499.224L595.249 503.159L594.462 502.668L595.052 501.29L592.592 494.993C592.494 495.289 591.805 495.485 591.018 495.584Z" fill="#313131"/>
<path d="M582.36 499.126C583.344 498.732 584.426 498.634 585.509 498.929C586.689 499.126 587.772 499.716 588.952 500.503C590.133 501.29 591.018 502.274 591.609 503.356C592.199 504.439 592.494 505.521 592.396 506.603C592.297 507.685 592.002 508.768 591.313 509.751C590.231 511.326 588.854 512.211 587.28 512.408C585.705 512.605 584.033 512.014 582.164 510.834C580.983 510.047 580.097 509.063 579.507 507.98C578.917 506.898 578.622 505.816 578.72 504.635C578.72 503.455 579.114 502.471 579.802 501.487C580.491 500.208 581.376 499.519 582.36 499.126ZM590.92 505.718C590.428 504.537 589.346 503.356 587.673 502.274C586.099 501.192 584.722 500.7 583.443 500.602C582.164 500.503 581.18 500.995 580.491 501.979C579.802 502.963 579.704 504.045 580.196 505.226C580.688 506.406 581.77 507.587 583.443 508.768C585.017 509.85 586.394 510.342 587.673 510.44C588.952 510.44 589.936 509.948 590.625 508.964C591.313 507.98 591.412 506.898 590.92 505.718Z" fill="#313131"/>
<path d="M584.82 516.54L585.902 515.458L586.689 516.048L585.213 518.016C584.918 518.311 584.623 518.803 584.328 519.393C584.033 519.885 583.738 520.279 583.541 520.475C582.459 521.853 581.573 522.64 580.688 522.935C579.802 523.23 578.917 523.033 578.13 522.443C577.441 521.951 576.949 521.263 576.752 520.475C576.555 519.688 576.654 518.901 577.047 518.114C576.359 519.098 575.572 519.688 574.686 519.885C573.801 520.082 572.915 519.885 572.128 519.295C571.144 518.508 570.554 517.524 570.455 516.343C570.357 515.163 570.947 513.687 572.128 512.113C572.423 511.719 572.718 511.424 572.915 511.129C573.505 510.342 573.899 509.948 573.997 509.751L575.473 507.784L576.162 508.374L575.375 509.751L584.82 516.54ZM573.013 512.605C572.226 513.588 571.931 514.474 572.03 515.261C572.128 516.048 572.522 516.737 573.309 517.327C574.096 517.917 574.784 518.114 575.473 518.016C576.162 517.917 576.752 517.425 577.441 516.54C578.228 515.556 578.72 514.867 578.818 514.572L574.391 511.227C573.997 511.227 573.604 511.719 573.013 512.605ZM579.015 515.95L578.425 516.737C577.933 517.426 577.736 518.114 577.834 518.803C577.933 519.492 578.326 520.082 579.113 520.574C579.802 521.066 580.491 521.263 581.081 521.164C581.671 521.066 582.262 520.574 582.95 519.688C583.246 519.295 583.442 518.901 583.738 518.508L583.934 518.213L579.802 515.064C579.507 515.261 579.31 515.556 579.015 515.95Z" fill="#313131"/>
<circle cx="63.1646" cy="171.823" r="2" transform="rotate(-15 63.1646 171.823)" fill="#313131"/>
<circle cx="447.247" cy="42.3749" r="2" transform="rotate(-15 447.247 42.3749)" fill="#313131"/>
</g>
</svg>
